<?xml version="1.0" encoding="UTF-8" standalone="no"?>
<!-- Created with Inkscape (http://www.inkscape.org/) -->

<svg
   xmlns:dc="http://purl.org/dc/elements/1.1/"
   xmlns:cc="http://creativecommons.org/ns#"
   xmlns:rdf="http://www.w3.org/1999/02/22-rdf-syntax-ns#"
   xmlns:svg="http://www.w3.org/2000/svg"
   xmlns="http://www.w3.org/2000/svg"
   xmlns:sodipodi="http://sodipodi.sourceforge.net/DTD/sodipodi-0.dtd"
   xmlns:inkscape="http://www.inkscape.org/namespaces/inkscape"
   width="117.94553"
   height="25.000488"
   id="svg3088"
   version="1.1"
   inkscape:version="0.48.2 r9819"
   sodipodi:docname="C:\Users\Chris\Desktop\BFC Logo.svg">
  <defs
     id="defs3090" />
  <sodipodi:namedview
     id="base"
     pagecolor="#ffffff"
     bordercolor="#666666"
     borderopacity="1.0"
     inkscape:pageopacity="0.0"
     inkscape:pageshadow="2"
     inkscape:zoom="2.8"
     inkscape:cx="41.182369"
     inkscape:cy="9.9754595"
     inkscape:document-units="px"
     inkscape:current-layer="layer1"
     showgrid="false"
     inkscape:window-width="1920"
     inkscape:window-height="1017"
     inkscape:window-x="-8"
     inkscape:window-y="-8"
     inkscape:window-maximized="1"
     fit-margin-top="0"
     fit-margin-left="0"
     fit-margin-right="0"
     fit-margin-bottom="0" />
  <metadata
     id="metadata3093">
    <rdf:RDF>
      <cc:Work
         rdf:about="">
        <dc:format>image/svg+xml</dc:format>
        <dc:type
           rdf:resource="http://purl.org/dc/dcmitype/StillImage" />
        <dc:title></dc:title>
      </cc:Work>
    </rdf:RDF>
  </metadata>
  <g
     inkscape:label="Layer 1"
     inkscape:groupmode="layer"
     id="layer1"
     transform="translate(-311.01875,-550.34742)">
    <path
       style="fill:#ff0000;stroke:#ff0000;stroke-width:0.73455822;stroke-linecap:round;stroke-linejoin:miter;stroke-miterlimit:4;stroke-opacity:1;stroke-dasharray:none"
       d="m 311.42294,565.11281 117.16204,0.0918"
       id="path3081"
       inkscape:connector-curvature="0" />
    <path
       inkscape:connector-curvature="0"
       id="path3851"
       d="m 311.42294,574.88832 117.16204,0.0918"
       style="fill:#ff0000;stroke:#ff0000;stroke-width:0.73455822;stroke-linecap:round;stroke-linejoin:miter;stroke-miterlimit:4;stroke-opacity:1;stroke-dasharray:none" />
    <g
       style="font-size:15.59744072000000000px;font-style:normal;font-variant:normal;font-weight:bold;font-stretch:normal;line-height:125%;letter-spacing:0px;word-spacing:0px;fill:#000000;fill-opacity:1;stroke:none;font-family:Trajan Pro;-inkscape-font-specification:Sans Bold"
       id="text3002">
      <path
         d="m 312.73055,557.74051 c 0.002,0.72528 -0.002,1.37646 -0.01,1.95356 -0.008,0.5771 -0.0309,1.03331 -0.0682,1.36865 -0.0267,0.22974 -0.0708,0.42145 -0.13258,0.57515 -0.0617,0.1537 -0.16832,0.24793 -0.31974,0.2827 -0.0702,0.0163 -0.15208,0.0305 -0.24566,0.0429 -0.0936,0.0123 -0.19886,0.0188 -0.31584,0.0195 -0.0923,3.3e-4 -0.15728,0.0114 -0.19497,0.0331 -0.0377,0.0218 -0.0559,0.0523 -0.0546,0.0916 0.003,0.10658 0.10658,0.15857 0.31195,0.15597 0.15889,-0.001 0.33241,-0.006 0.52055,-0.0156 0.18814,-0.009 0.37336,-0.0143 0.55566,-0.0156 0.19009,-0.007 0.3636,-0.012 0.52055,-0.0136 0.15695,-0.002 0.27978,-0.002 0.36849,-0.002 0.12185,0 0.28757,0.004 0.49716,0.0117 0.20959,0.008 0.4338,0.0195 0.67263,0.0351 0.23168,0.009 0.44679,0.0185 0.64534,0.0293 0.19853,0.0107 0.34736,0.0166 0.44647,0.0175 1.42909,-0.0374 2.4819,-0.39545 3.15844,-1.07426 0.67652,-0.6788 1.01186,-1.45411 1.00602,-2.32594 -0.0383,-0.91146 -0.3516,-1.64647 -0.93973,-2.20506 -0.58816,-0.55857 -1.22114,-0.94655 -1.89897,-1.16394 0.44159,-0.33403 0.81398,-0.71487 1.11716,-1.1425 0.30316,-0.42761 0.46108,-0.95662 0.47376,-1.58702 0.038,-0.45913 -0.1628,-0.95239 -0.60244,-1.47978 -0.43966,-0.52738 -1.34624,-0.81397 -2.71977,-0.8598 -0.26353,0.002 -0.55142,0.01 -0.86369,0.0234 -0.31227,0.0137 -0.65866,0.0215 -1.03916,0.0234 -0.1732,-0.002 -0.4624,-0.01 -0.8676,-0.0234 -0.40521,-0.0136 -0.82309,-0.0214 -1.25363,-0.0234 -0.11666,-9.4e-4 -0.2031,0.009 -0.25931,0.0293 -0.0562,0.0205 -0.0842,0.0575 -0.0838,0.11113 3.3e-4,0.0536 0.0231,0.0907 0.0682,0.11113 0.0452,0.0205 0.11081,0.0302 0.19692,0.0293 0.11308,10e-6 0.22616,0.004 0.33924,0.0117 0.11307,0.008 0.20276,0.0195 0.26905,0.0351 0.25118,0.0517 0.4234,0.14721 0.51666,0.2866 0.0933,0.13941 0.14459,0.34022 0.15402,0.60244 0.0149,0.20798 0.024,0.52512 0.0273,0.95143 0.003,0.42634 0.005,1.2114 0.004,2.35519 z m 1.87167,-6.33248 c -9.8e-4,-0.0842 0.009,-0.14589 0.0292,-0.18522 0.0205,-0.0393 0.0575,-0.0659 0.11113,-0.0799 0.076,-0.0149 0.15402,-0.024 0.23396,-0.0273 0.0799,-0.003 0.17351,-0.005 0.28075,-0.004 0.66807,0.0354 1.16069,0.30774 1.47784,0.81691 0.31713,0.50919 0.4744,1.04275 0.47181,1.60067 -0.001,0.38279 -0.0572,0.71293 -0.16767,0.99042 -0.11048,0.27751 -0.26776,0.49847 -0.47181,0.66288 -0.13064,0.11472 -0.28661,0.19335 -0.46792,0.23591 -0.18133,0.0426 -0.39969,0.0627 -0.65509,0.0604 -0.17872,10e-6 -0.32819,-0.004 -0.44842,-0.0117 -0.12023,-0.008 -0.21511,-0.0195 -0.28465,-0.0351 -0.0318,-0.006 -0.0578,-0.0211 -0.078,-0.0448 -0.0202,-0.0237 -0.0306,-0.066 -0.0312,-0.12673 z m 3.57177,8.20415 c -0.0348,0.79286 -0.26158,1.32837 -0.68043,1.60652 -0.41886,0.27815 -0.82113,0.40812 -1.20683,0.38993 -0.17808,0.003 -0.36005,-0.007 -0.54591,-0.0292 -0.18587,-0.0224 -0.38344,-0.0751 -0.59269,-0.15792 -0.24111,-0.0868 -0.39449,-0.23298 -0.46012,-0.43867 -0.0656,-0.20569 -0.0942,-0.55858 -0.0858,-1.05867 l 0,-3.69654 c 0,-0.0754 0.0312,-0.11178 0.0936,-0.10918 0.11275,-3.2e-4 0.21868,3.3e-4 0.31779,0.002 0.0991,0.002 0.21673,0.006 0.35289,0.0136 0.29959,0.0146 0.55044,0.0517 0.75257,0.11113 0.2021,0.0595 0.38277,0.1472 0.542,0.2632 0.58164,0.43055 0.98197,0.93031 1.20099,1.49928 0.219,0.56898 0.32298,1.10384 0.31194,1.60457 z"
         style="fill:#000000;-inkscape-font-specification:Trajan Pro Bold"
         id="path3015" />
      <path
         d="m 323.44649,558.41119 c 0.001,0.6148 -0.001,1.1672 -0.008,1.65721 -0.007,0.49001 -0.0247,0.87864 -0.0546,1.16589 -0.0198,0.19594 -0.0582,0.35387 -0.11503,0.47377 -0.0569,0.1199 -0.1537,0.19594 -0.2905,0.22811 -0.12218,0.0312 -0.28335,0.0468 -0.48351,0.0468 -0.0842,0.002 -0.14201,0.0175 -0.17352,0.0468 -0.0315,0.0292 -0.0465,0.0604 -0.0449,0.0936 0.003,0.0936 0.091,0.14037 0.26516,0.14037 0.29245,-0.002 0.60829,-0.01 0.94754,-0.0234 0.33923,-0.0136 0.58489,-0.0214 0.73697,-0.0234 0.12802,0.002 0.41007,0.01 0.84615,0.0234 0.43607,0.0136 0.8663,0.0214 1.29068,0.0234 0.0867,0 0.15498,-0.0117 0.2047,-0.0351 0.0497,-0.0234 0.0751,-0.0585 0.076,-0.10528 -3.3e-4,-0.0331 -0.0153,-0.0643 -0.0448,-0.0936 -0.0296,-0.0292 -0.0718,-0.0448 -0.12673,-0.0468 -0.0903,0 -0.19822,-0.004 -0.32364,-0.0117 -0.12543,-0.008 -0.24111,-0.0195 -0.34704,-0.0351 -0.20342,-0.0322 -0.33859,-0.10821 -0.40553,-0.22811 -0.0669,-0.1199 -0.10853,-0.27783 -0.12478,-0.47377 -0.0305,-0.28627 -0.0513,-0.67295 -0.0624,-1.16004 -0.0111,-0.48709 -0.0163,-1.04144 -0.0156,-1.66306 l 0,-0.18716 c 6.4e-4,-0.0387 0.011,-0.0666 0.0312,-0.0838 0.0201,-0.0172 0.0461,-0.0257 0.078,-0.0254 l 1.23218,0.0312 c 0.0465,-9.7e-4 0.09,0.005 0.13063,0.0176 0.0406,0.0127 0.0802,0.038 0.11893,0.076 0.0949,0.11926 0.26384,0.35647 0.50691,0.71163 0.24305,0.35516 0.5056,0.72105 0.78766,1.09765 0.3753,0.51309 0.70869,0.92966 1.00017,1.24973 0.29147,0.32007 0.58196,0.55338 0.8715,0.69993 0.17156,0.0929 0.37042,0.16052 0.59659,0.20276 0.22615,0.0422 0.5264,0.063 0.90074,0.0624 l 1.31017,0 c 0.0861,9.8e-4 0.15174,-0.009 0.19691,-0.0292 0.0452,-0.0205 0.0679,-0.0575 0.0682,-0.11113 -3.3e-4,-0.0331 -0.0153,-0.0643 -0.0448,-0.0936 -0.0296,-0.0292 -0.0718,-0.0448 -0.12673,-0.0468 -0.0527,6.5e-4 -0.10334,-6.5e-4 -0.15207,-0.004 -0.0487,-0.003 -0.10724,-0.0123 -0.17547,-0.0273 -0.10887,-0.009 -0.28498,-0.065 -0.52836,-0.16767 -0.24339,-0.10269 -0.55598,-0.33794 -0.93778,-0.70578 -0.41106,-0.41495 -0.86403,-0.91861 -1.35891,-1.51098 -0.49489,-0.59237 -1.04535,-1.2637 -1.65136,-2.014 0.66613,-0.5316 1.15094,-1.03201 1.45445,-1.50123 0.30348,-0.46921 0.45296,-0.94623 0.44842,-1.43105 -0.0159,-0.44841 -0.12836,-0.83054 -0.33729,-1.14639 -0.20895,-0.31584 -0.41886,-0.542 -0.62974,-0.67848 -0.37467,-0.23493 -0.79124,-0.38895 -1.24973,-0.46207 -0.4585,-0.0731 -0.91017,-0.10625 -1.35501,-0.0994 -0.24403,0.001 -0.59432,0.006 -1.05086,0.0156 -0.45654,0.009 -0.81853,0.0143 -1.08595,0.0156 -0.15598,-0.001 -0.41334,-0.006 -0.77207,-0.0156 -0.35874,-0.009 -0.72528,-0.0143 -1.09961,-0.0156 -0.10171,-6.3e-4 -0.17905,0.008 -0.23201,0.0273 -0.053,0.0189 -0.0796,0.0513 -0.0799,0.0975 9.8e-4,0.0468 0.0224,0.0819 0.0643,0.10528 0.0419,0.0234 0.0985,0.0351 0.16962,0.0351 0.10463,1e-5 0.20731,0.004 0.30805,0.0117 0.10073,0.008 0.18001,0.0195 0.23786,0.0351 0.21381,0.0562 0.36328,0.13486 0.44842,0.23591 0.0851,0.10107 0.13322,0.26159 0.14427,0.48156 0.007,0.17548 0.012,0.44453 0.0137,0.80716 0.002,0.36264 0.002,1.02943 0.002,2.00035 z m 1.74689,-5.25627 c -6.6e-4,-0.0536 0.008,-0.0945 0.0273,-0.12283 0.0189,-0.0283 0.0513,-0.0497 0.0975,-0.0643 0.0738,-0.0156 0.18358,-0.0273 0.32949,-0.0351 0.14589,-0.008 0.30641,-0.0117 0.48156,-0.0117 0.44192,-0.0188 0.89164,0.13974 1.34916,0.47572 0.45752,0.336 0.70447,0.96249 0.74087,1.87947 -0.0107,0.54103 -0.10626,0.96801 -0.2866,1.28092 -0.18035,0.31293 -0.38116,0.54103 -0.60244,0.68433 -0.10854,0.0842 -0.23071,0.142 -0.36653,0.17352 -0.13584,0.0315 -0.336,0.0465 -0.6005,0.0448 -0.17515,6.6e-4 -0.35517,-0.008 -0.54005,-0.0273 -0.1849,-0.0188 -0.35322,-0.0513 -0.50496,-0.0975 -0.0461,-0.0214 -0.0786,-0.0487 -0.0975,-0.0819 -0.0188,-0.0331 -0.0279,-0.0838 -0.0273,-0.15208 z"
         style="fill:#000000;-inkscape-font-specification:Trajan Pro Bold"
         id="path3017" />
      <path
         d="m 335.621,559.90853 c 9.7e-4,0.11568 -9.8e-4,0.29375 -0.006,0.5342 -0.005,0.24046 -0.0185,0.50431 -0.0409,0.79156 -0.0136,0.19594 -0.0526,0.35387 -0.11698,0.47377 -0.0643,0.1199 -0.16572,0.19594 -0.30415,0.22811 -0.063,0.0156 -0.13582,0.0273 -0.21836,0.0351 -0.0825,0.008 -0.17092,0.0117 -0.26515,0.0117 -0.0773,0.002 -0.13323,0.0175 -0.16767,0.0468 -0.0344,0.0292 -0.0513,0.0604 -0.0507,0.0936 6.5e-4,0.0536 0.0266,0.0906 0.078,0.11113 0.0513,0.0205 0.12413,0.0302 0.21837,0.0292 0.27782,-0.002 0.59562,-0.01 0.95339,-0.0234 0.35776,-0.0136 0.63266,-0.0214 0.8247,-0.0234 0.19984,0.002 0.49814,0.01 0.8949,0.0234 0.39675,0.0136 0.81592,0.0214 1.25753,0.0234 0.0942,0 0.167,-0.0117 0.21834,-0.0351 0.0513,-0.0234 0.0773,-0.0585 0.078,-0.10528 -10e-6,-0.0331 -0.0195,-0.0643 -0.0585,-0.0936 -0.039,-0.0292 -0.0975,-0.0448 -0.17547,-0.0468 -0.0978,0 -0.21025,-0.004 -0.33729,-0.0117 -0.12706,-0.008 -0.24339,-0.0195 -0.34899,-0.0351 -0.19887,-0.0322 -0.33924,-0.10821 -0.42112,-0.22811 -0.0819,-0.1199 -0.12869,-0.27783 -0.14038,-0.47377 -0.0149,-0.28724 -0.024,-0.5511 -0.0273,-0.79156 -0.003,-0.24045 -0.005,-0.41852 -0.004,-0.5342 l 0,-1.06061 c -0.006,-0.21609 -0.002,-0.4312 0.01,-0.64534 0.012,-0.21413 0.066,-0.44094 0.16183,-0.68043 0.1031,-0.21932 0.33706,-0.62985 0.70187,-1.2316 0.3648,-0.60174 0.74086,-1.20176 1.1282,-1.80004 0.38732,-0.59827 0.66634,-1.00188 0.83705,-1.21081 0.14102,-0.17416 0.2606,-0.30544 0.35874,-0.39383 0.0981,-0.0884 0.2177,-0.16506 0.35874,-0.23006 0.10462,-0.0474 0.2112,-0.0851 0.31974,-0.11308 0.10852,-0.0279 0.1995,-0.0422 0.27295,-0.0429 0.0793,-6.4e-4 0.14297,-0.0149 0.19107,-0.0429 0.0481,-0.0279 0.0728,-0.0656 0.0741,-0.11308 -6.6e-4,-0.0387 -0.0228,-0.0666 -0.0663,-0.0838 -0.0436,-0.0172 -0.10465,-0.0257 -0.18327,-0.0253 -0.15857,0.001 -0.39902,0.006 -0.72135,0.0156 -0.32235,0.009 -0.57061,0.0143 -0.74477,0.0156 -0.20505,-0.001 -0.42276,-0.006 -0.65314,-0.0156 -0.23039,-0.009 -0.4598,-0.0143 -0.68823,-0.0156 -0.078,-6.3e-4 -0.13649,0.008 -0.17548,0.0273 -0.039,0.0189 -0.0585,0.0513 -0.0585,0.0975 0.003,0.0523 0.0286,0.0881 0.078,0.10723 0.0494,0.0192 0.10658,0.0354 0.17157,0.0488 0.1147,0.025 0.19334,0.0647 0.23591,0.11892 0.0426,0.0543 0.0627,0.11342 0.0604,0.17742 0.003,0.17158 -0.065,0.40554 -0.20276,0.70188 -0.0859,0.1658 -0.2798,0.51009 -0.58172,1.03288 -0.30194,0.52281 -0.60214,1.0404 -0.9006,1.55279 -0.29847,0.51241 -0.48544,0.83591 -0.56092,0.9705 -0.0971,-0.15828 -0.31012,-0.51933 -0.63891,-1.08314 -0.3288,-0.56381 -0.65846,-1.12935 -0.98898,-1.69664 -0.33053,-0.56726 -0.54697,-0.93524 -0.64931,-1.10393 -0.11178,-0.18976 -0.16897,-0.34053 -0.17157,-0.45232 9.7e-4,-0.0543 0.0185,-0.0978 0.0526,-0.13063 0.0341,-0.0328 0.079,-0.0569 0.13453,-0.0721 0.10853,-0.0276 0.18781,-0.0503 0.23786,-0.0682 0.05,-0.0179 0.0747,-0.0523 0.0741,-0.10333 -6.5e-4,-0.0461 -0.0189,-0.0786 -0.0546,-0.0975 -0.0357,-0.0188 -0.0851,-0.0279 -0.14817,-0.0273 -0.31942,0.001 -0.62032,0.006 -0.90269,0.0156 -0.28237,0.009 -0.50139,0.0143 -0.65703,0.0156 -0.25476,-0.001 -0.568,-0.006 -0.93974,-0.0156 -0.37173,-0.009 -0.63039,-0.0143 -0.77596,-0.0156 -0.0861,-6.3e-4 -0.15175,0.008 -0.19692,0.0273 -0.0452,0.0189 -0.0679,0.0513 -0.0682,0.0975 0.002,0.0468 0.0218,0.0819 0.0604,0.10528 0.0387,0.0234 0.0861,0.0351 0.14233,0.0351 0.0884,0.001 0.18457,0.0182 0.28855,0.0507 0.10398,0.0325 0.20016,0.0728 0.28855,0.12088 0.1316,0.0702 0.27002,0.18327 0.41527,0.33924 0.14525,0.15598 0.30317,0.35484 0.47377,0.59659 0.18071,0.26439 0.45704,0.68359 0.82896,1.2576 0.37193,0.57403 0.72219,1.12031 1.0508,1.63887 0.32859,0.51856 0.51826,0.82685 0.56901,0.92486 0.0949,0.18359 0.17026,0.37401 0.22616,0.57124 0.0559,0.19725 0.0845,0.46955 0.0858,0.81691 z"
         style="fill:#000000;-inkscape-font-specification:Trajan Pro Bold"
         id="path3019" />
      <path
         d="m 347.16064,558.9259 c 0.0312,-9.7e-4 0.0585,0.005 0.0819,0.0176 0.0234,0.0127 0.0429,0.038 0.0585,0.076 l 1.06061,2.66713 c 0.0279,0.0796 0.0266,0.14655 -0.004,0.20082 -0.0306,0.0543 -0.0709,0.0861 -0.12088,0.0955 -0.0686,0.008 -0.11471,0.0234 -0.13842,0.0468 -0.0237,0.0234 -0.0348,0.0546 -0.0332,0.0936 0.001,0.0445 0.0377,0.0725 0.10918,0.0838 0.0715,0.0114 0.17026,0.0198 0.29635,0.0254 0.58456,0.0149 1.10772,0.024 1.56947,0.0273 0.46174,0.003 0.81722,0.005 1.06646,0.004 0.24987,9.8e-4 0.41299,-0.009 0.48937,-0.0292 0.0763,-0.0205 0.11079,-0.0575 0.10333,-0.11113 -10e-6,-0.0936 -0.0624,-0.14038 -0.18717,-0.14038 -0.077,0 -0.15696,-0.004 -0.23981,-0.0117 -0.0829,-0.008 -0.1745,-0.0195 -0.2749,-0.0351 -0.12479,-0.005 -0.28466,-0.0968 -0.47961,-0.27685 -0.19498,-0.18002 -0.42504,-0.56085 -0.69018,-1.1425 -0.31205,-0.72074 -0.71912,-1.67083 -1.22121,-2.85025 -0.5021,-1.17942 -0.97387,-2.28778 -1.4153,-3.3251 -0.44145,-1.03731 -0.7272,-1.70317 -0.85727,-1.9976 -0.0656,-0.14719 -0.12544,-0.25442 -0.17937,-0.3217 -0.054,-0.0672 -0.12933,-0.10039 -0.22616,-0.0994 -0.0686,-0.001 -0.13421,0.0403 -0.19692,0.12478 -0.0627,0.0845 -0.13225,0.21967 -0.20861,0.40553 l -3.58736,8.34452 c -0.13128,0.33632 -0.27816,0.60342 -0.44063,0.80131 -0.16247,0.19789 -0.39513,0.32072 -0.69797,0.36848 -0.0637,6.5e-4 -0.13128,0.003 -0.20277,0.008 -0.0715,0.005 -0.13907,0.007 -0.20276,0.008 -0.0543,9.8e-4 -0.0939,0.0146 -0.11893,0.0409 -0.025,0.0263 -0.0374,0.0595 -0.037,0.0994 -3.3e-4,0.0536 0.0198,0.0906 0.0604,0.11113 0.0406,0.0205 0.10365,0.0302 0.18911,0.0292 0.37141,-0.002 0.7087,-0.01 1.01187,-0.0234 0.30318,-0.0136 0.49619,-0.0214 0.57905,-0.0234 0.22649,0.002 0.47929,0.01 0.75842,0.0234 0.27913,0.0136 0.53583,0.0214 0.77012,0.0234 0.0705,9.8e-4 0.12444,-0.009 0.16181,-0.0292 0.0374,-0.0205 0.0562,-0.0575 0.0565,-0.11113 0.002,-0.04 -0.0101,-0.0731 -0.037,-0.0994 -0.027,-0.0263 -0.0822,-0.04 -0.16572,-0.0409 l -0.20277,0 c -0.20699,-9.7e-4 -0.35061,-0.0341 -0.43087,-0.0994 -0.0803,-0.0653 -0.11861,-0.15695 -0.11503,-0.2749 -3.3e-4,-0.0816 0.0159,-0.19529 0.0487,-0.34119 0.0328,-0.1459 0.0842,-0.30252 0.15402,-0.46987 l 0.73307,-1.77809 c 0.014,-0.038 0.0289,-0.0634 0.0448,-0.076 0.0159,-0.0127 0.0426,-0.0185 0.0799,-0.0176 z m -2.94788,-0.73307 c -0.0244,1e-5 -0.0419,-0.008 -0.0526,-0.0234 -0.0107,-0.0156 -0.009,-0.039 0.006,-0.0702 l 1.32577,-3.35341 c 0.007,-0.0257 0.0163,-0.0523 0.0273,-0.08 0.011,-0.0276 0.0279,-0.0426 0.0507,-0.0448 0.0153,0.002 0.0276,0.0172 0.037,0.0448 0.009,0.0276 0.0179,0.0543 0.0253,0.0799 l 1.29456,3.36902 c 0.0182,0.0494 -0.003,0.0754 -0.0624,0.078 z"
         style="fill:#000000;-inkscape-font-specification:Trajan Pro Bold"
         id="path3021" />
      <path
         d="m 353.91145,555.04219 0.0468,0 c 0.15629,0.14915 0.53778,0.54493 1.14445,1.18734 0.60666,0.64242 1.29619,1.33844 2.06858,2.08808 0.74119,0.71683 1.48141,1.4278 2.22066,2.13292 0.73923,0.70513 1.33518,1.26793 1.78783,1.6884 0.0702,0.0731 0.15206,0.13745 0.24566,0.19302 0.0936,0.0556 0.19885,0.0848 0.31584,0.0877 0.0569,9.8e-4 0.1069,-0.0322 0.15013,-0.0994 0.0432,-0.0673 0.0659,-0.17449 0.0682,-0.32169 l 0.15598,-8.36012 c 0.004,-0.3662 0.0426,-0.62811 0.11503,-0.78571 0.0725,-0.15759 0.20047,-0.25962 0.38408,-0.3061 0.0838,-0.0224 0.15791,-0.0361 0.22226,-0.0409 0.0643,-0.005 0.13061,-0.007 0.19886,-0.006 0.078,-9.7e-4 0.13647,-0.0146 0.17547,-0.0409 0.039,-0.0263 0.0585,-0.0595 0.0585,-0.0994 -0.001,-0.053 -0.0299,-0.0874 -0.0858,-0.10333 -0.0559,-0.0159 -0.13129,-0.0231 -0.22616,-0.0214 -0.33956,0.001 -0.62745,0.006 -0.86367,0.0156 -0.23625,0.009 -0.39547,0.0143 -0.47767,0.0156 -0.1576,-0.001 -0.39611,-0.006 -0.71552,-0.0156 -0.31943,-0.009 -0.66322,-0.0143 -1.03137,-0.0156 -0.10303,-0.002 -0.18557,0.006 -0.24763,0.0215 -0.0621,0.0159 -0.0939,0.0504 -0.0955,0.10333 -0.002,0.04 0.0133,0.0731 0.0448,0.0994 0.0315,0.0263 0.0893,0.04 0.17352,0.0409 0.0991,-0.002 0.21672,0.002 0.35288,0.01 0.13615,0.008 0.25767,0.0309 0.36459,0.0682 0.16181,0.0526 0.27879,0.16184 0.35094,0.32755 0.0721,0.16573 0.11112,0.44648 0.11698,0.84225 l 0.14037,5.89575 -0.0624,0 c -0.0831,-0.0787 -0.29992,-0.29567 -0.65046,-0.65104 -0.35056,-0.35536 -0.74184,-0.75145 -1.17384,-1.18828 -0.43201,-0.43681 -0.81174,-0.81673 -1.13917,-1.13975 -1.03885,-1.01836 -1.97143,-1.9451 -2.79776,-2.78021 -0.82633,-0.83509 -1.3027,-1.3173 -1.4291,-1.44664 -0.11633,-0.12054 -0.22291,-0.22258 -0.31974,-0.3061 -0.0968,-0.0835 -0.18782,-0.12704 -0.27295,-0.13062 -0.0712,0.002 -0.12771,0.0445 -0.16962,0.12672 -0.0419,0.0822 -0.0634,0.19076 -0.0643,0.3256 l -0.12478,7.86101 c -0.002,0.56605 -0.0292,0.96638 -0.0819,1.20098 -0.0527,0.23461 -0.16573,0.36979 -0.33924,0.40553 -0.0962,0.0231 -0.20017,0.0393 -0.31195,0.0487 -0.11178,0.009 -0.21576,0.014 -0.31194,0.0137 -0.0637,9.8e-4 -0.11568,0.0146 -0.15597,0.0409 -0.0403,0.0263 -0.0611,0.0595 -0.0624,0.0994 0.001,0.0604 0.0299,0.0994 0.0858,0.11697 0.0559,0.0176 0.13128,0.0254 0.22616,0.0234 0.36101,-0.002 0.68011,-0.01 0.95729,-0.0234 0.27717,-0.0136 0.45199,-0.0214 0.52446,-0.0234 0.1277,0.002 0.34411,0.01 0.64923,0.0234 0.30512,0.0136 0.68141,0.0214 1.12886,0.0234 0.0949,9.8e-4 0.17025,-0.009 0.22615,-0.0292 0.0559,-0.0205 0.0845,-0.0575 0.0858,-0.11113 -10e-6,-0.04 -0.0195,-0.0731 -0.0585,-0.0994 -0.039,-0.0263 -0.0975,-0.04 -0.17547,-0.0409 -0.11081,9.8e-4 -0.22844,-0.005 -0.35289,-0.0176 -0.12445,-0.0127 -0.24598,-0.038 -0.36458,-0.076 -0.13356,-0.0364 -0.24079,-0.15857 -0.3217,-0.36654 -0.0809,-0.20796 -0.12965,-0.5641 -0.14622,-1.06841 z"
         style="fill:#000000;-inkscape-font-specification:Trajan Pro Bold"
         id="path3023" />
      <path
         d="m 373.30807,556.47713 c -3.3e-4,-0.0536 0.008,-0.0906 0.0253,-0.11113 0.0172,-0.0205 0.0452,-0.0302 0.0838,-0.0292 0.10474,-2.8e-4 0.31463,2.9e-4 0.62966,0.002 0.31502,0.001 0.63698,0.005 0.96588,0.0121 0.32888,0.007 0.5665,0.0176 0.71285,0.0329 0.2398,0.0371 0.42307,0.11114 0.5498,0.22226 0.12672,0.11114 0.20861,0.22422 0.24566,0.33924 0.0312,0.0952 0.0546,0.18555 0.0702,0.271 0.0156,0.0855 0.0234,0.15631 0.0234,0.21252 -6.6e-4,0.0569 0.008,0.10691 0.0273,0.15012 0.0188,0.0432 0.0513,0.066 0.0975,0.0682 0.0747,-0.004 0.12022,-0.0354 0.13647,-0.0955 0.0162,-0.0601 0.0227,-0.12704 0.0195,-0.20081 6.4e-4,-0.0757 0.007,-0.24013 0.0195,-0.49326 0.0123,-0.25313 0.0266,-0.46824 0.0429,-0.64534 0.0257,-0.24597 0.0523,-0.45589 0.0799,-0.62974 0.0276,-0.17383 0.0426,-0.28626 0.0448,-0.33729 -1e-5,-0.0936 -0.0312,-0.14037 -0.0936,-0.14037 -0.0445,6.5e-4 -0.0803,0.0149 -0.10723,0.0429 -0.027,0.028 -0.0588,0.0657 -0.0955,0.11308 -0.0777,0.0994 -0.1719,0.16963 -0.2827,0.21056 -0.11081,0.041 -0.24014,0.0643 -0.38798,0.0702 -0.10821,0.007 -0.21934,0.012 -0.33339,0.0136 -0.11406,0.002 -0.23689,0.002 -0.36849,0.002 l -1.99644,0.0156 c -0.0455,10e-6 -0.0754,-0.0117 -0.0897,-0.0351 -0.0143,-0.0234 -0.0208,-0.0585 -0.0195,-0.10528 l 0,-3.89931 c -10e-6,-0.0842 0.0117,-0.14199 0.0351,-0.17352 0.0234,-0.0315 0.0585,-0.0465 0.10528,-0.0448 l 2.40198,0.0468 c 0.29536,0.0127 0.52737,0.0653 0.69602,0.15792 0.16864,0.0926 0.27977,0.19595 0.33339,0.31 0.0448,0.11244 0.0721,0.22292 0.0819,0.33144 0.01,0.10854 0.0136,0.19562 0.0117,0.26125 0.006,0.0855 0.0208,0.14851 0.0429,0.18912 0.0221,0.0406 0.0598,0.0608 0.11308,0.0604 0.0533,-0.001 0.091,-0.0221 0.11308,-0.0624 0.0221,-0.0403 0.0364,-0.0923 0.0429,-0.15597 0.0159,-0.12477 0.0309,-0.33923 0.0448,-0.64339 0.014,-0.30414 0.025,-0.5108 0.0332,-0.61999 0.0257,-0.19983 0.0523,-0.35385 0.0799,-0.46207 0.0276,-0.10819 0.0426,-0.18813 0.0448,-0.23981 -6.6e-4,-0.0399 -0.0111,-0.0731 -0.0312,-0.0994 -0.0202,-0.0263 -0.0462,-0.04 -0.078,-0.0409 -0.0387,0.002 -0.0783,0.0137 -0.11893,0.0351 -0.0406,0.0215 -0.0842,0.041 -0.13063,0.0585 -0.0764,0.0221 -0.1654,0.0364 -0.2671,0.0429 -0.10172,0.007 -0.22585,0.013 -0.37239,0.0195 -0.1528,0.005 -0.51789,0.009 -1.09527,0.011 -0.57739,0.002 -1.16778,0.004 -1.77115,0.004 -0.60339,4.9e-4 -1.02047,6.9e-4 -1.25125,5.8e-4 -0.11113,-3.1e-4 -0.25151,-0.004 -0.42112,-0.01 -0.16963,-0.006 -0.35679,-0.0133 -0.5615,-0.0214 -0.20472,-6.3e-4 -0.41528,-0.003 -0.63169,-0.008 -0.21642,-0.005 -0.42698,-0.007 -0.63169,-0.008 -0.11731,-0.001 -0.20634,0.009 -0.2671,0.0312 -0.0608,0.0221 -0.0913,0.0637 -0.0916,0.12478 0.001,0.0462 0.026,0.0787 0.0741,0.0975 0.0481,0.0189 0.11178,0.028 0.19107,0.0273 0.11307,10e-6 0.22615,0.004 0.33924,0.0117 0.11307,0.008 0.20276,0.0195 0.26905,0.0351 0.25118,0.0517 0.4234,0.14721 0.51666,0.2866 0.0933,0.13941 0.14459,0.34022 0.15402,0.60244 0.0149,0.20798 0.024,0.52512 0.0273,0.95143 0.003,0.42634 0.005,1.2114 0.004,2.35519 l 0,2.74511 c 0.002,0.75257 -0.002,1.41155 -0.01,1.97695 -0.008,0.5654 -0.0309,1.01382 -0.0682,1.34526 -0.0267,0.22974 -0.0708,0.42145 -0.13258,0.57515 -0.0617,0.1537 -0.16832,0.24793 -0.31974,0.2827 -0.0702,0.0163 -0.15208,0.0305 -0.24566,0.0429 -0.0936,0.0123 -0.19887,0.0188 -0.31584,0.0195 -0.0848,3.3e-4 -0.14525,0.0114 -0.18132,0.0331 -0.0361,0.0218 -0.0536,0.0523 -0.0526,0.0916 0,0.0611 0.0273,0.10268 0.0819,0.12478 0.0546,0.0221 0.13648,0.0325 0.24566,0.0312 0.3165,-0.002 0.67003,-0.01 1.06062,-0.0234 0.39058,-0.0136 0.69733,-0.0214 0.92024,-0.0234 0.21478,0.002 0.53778,0.01 0.96898,0.0234 0.4312,0.0136 0.89846,0.0214 1.40181,0.0234 0.23134,0.003 0.34571,-0.0494 0.34312,-0.15597 0.002,-0.0393 -0.0172,-0.0699 -0.0565,-0.0916 -0.0393,-0.0218 -0.10886,-0.0328 -0.20861,-0.0331 -0.11439,-6.5e-4 -0.24437,-0.007 -0.38993,-0.0195 -0.14558,-0.0123 -0.27556,-0.0266 -0.38994,-0.0429 -0.22714,-0.0348 -0.38116,-0.129 -0.46206,-0.2827 -0.0809,-0.1537 -0.12966,-0.34541 -0.14623,-0.57515 -0.0374,-0.33144 -0.0601,-0.77986 -0.0682,-1.34526 -0.008,-0.5654 -0.0114,-1.22438 -0.01,-1.97695 z"
         style="fill:#000000;-inkscape-font-specification:Trajan Pro Bold"
         id="path3025" />
      <path
         d="m 380.71834,558.41119 c 0.001,0.6148 -0.001,1.1672 -0.008,1.65721 -0.006,0.49001 -0.0247,0.87864 -0.0546,1.16589 -0.0198,0.19594 -0.0582,0.35387 -0.11503,0.47377 -0.0569,0.1199 -0.1537,0.19594 -0.2905,0.22811 -0.12218,0.0312 -0.28335,0.0468 -0.48351,0.0468 -0.0842,0.002 -0.142,0.0175 -0.17352,0.0468 -0.0315,0.0292 -0.0465,0.0604 -0.0448,0.0936 0.003,0.0936 0.091,0.14037 0.26515,0.14037 0.29245,-0.002 0.60829,-0.01 0.94754,-0.0234 0.33924,-0.0136 0.58489,-0.0214 0.73697,-0.0234 0.12802,0.002 0.41007,0.01 0.84615,0.0234 0.43607,0.0136 0.8663,0.0214 1.29068,0.0234 0.0867,0 0.15498,-0.0117 0.2047,-0.0351 0.0497,-0.0234 0.075,-0.0585 0.076,-0.10528 -3.3e-4,-0.0331 -0.0153,-0.0643 -0.0448,-0.0936 -0.0296,-0.0292 -0.0718,-0.0448 -0.12673,-0.0468 -0.0903,0 -0.19822,-0.004 -0.32364,-0.0117 -0.12543,-0.008 -0.24111,-0.0195 -0.34704,-0.0351 -0.20342,-0.0322 -0.33859,-0.10821 -0.40553,-0.22811 -0.0669,-0.1199 -0.10853,-0.27783 -0.12477,-0.47377 -0.0306,-0.28627 -0.0514,-0.67295 -0.0624,-1.16004 -0.0111,-0.48709 -0.0163,-1.04144 -0.0156,-1.66306 l 0,-0.18716 c 6.5e-4,-0.0387 0.011,-0.0666 0.0312,-0.0838 0.0202,-0.0172 0.0461,-0.0257 0.078,-0.0254 l 1.23218,0.0312 c 0.0465,-9.7e-4 0.09,0.005 0.13063,0.0176 0.0406,0.0127 0.0802,0.038 0.11893,0.076 0.0949,0.11926 0.26385,0.35647 0.50691,0.71163 0.24305,0.35516 0.5056,0.72105 0.78766,1.09765 0.3753,0.51309 0.70869,0.92966 1.00017,1.24973 0.29147,0.32007 0.58197,0.55338 0.8715,0.69993 0.17156,0.0929 0.37042,0.16052 0.59659,0.20276 0.22615,0.0422 0.5264,0.063 0.90074,0.0624 l 1.31017,0 c 0.0861,9.8e-4 0.15174,-0.009 0.19692,-0.0292 0.0451,-0.0205 0.0679,-0.0575 0.0682,-0.11113 -3.3e-4,-0.0331 -0.0153,-0.0643 -0.0448,-0.0936 -0.0296,-0.0292 -0.0718,-0.0448 -0.12673,-0.0468 -0.0526,6.5e-4 -0.10334,-6.5e-4 -0.15207,-0.004 -0.0488,-0.003 -0.10724,-0.0123 -0.17547,-0.0273 -0.10887,-0.009 -0.28498,-0.065 -0.52835,-0.16767 -0.2434,-0.10269 -0.55599,-0.33794 -0.93779,-0.70578 -0.41106,-0.41495 -0.86403,-0.91861 -1.35891,-1.51098 -0.49489,-0.59237 -1.04535,-1.2637 -1.65136,-2.014 0.66613,-0.5316 1.15094,-1.03201 1.45445,-1.50123 0.30348,-0.46921 0.45296,-0.94623 0.44842,-1.43105 -0.0159,-0.44841 -0.12836,-0.83054 -0.33729,-1.14639 -0.20895,-0.31584 -0.41886,-0.542 -0.62974,-0.67848 -0.37467,-0.23493 -0.79124,-0.38895 -1.24973,-0.46207 -0.4585,-0.0731 -0.91017,-0.10625 -1.35501,-0.0994 -0.24403,0.001 -0.59432,0.006 -1.05085,0.0156 -0.45655,0.009 -0.81854,0.0143 -1.08596,0.0156 -0.15598,-0.001 -0.41333,-0.006 -0.77207,-0.0156 -0.35874,-0.009 -0.72528,-0.0143 -1.09961,-0.0156 -0.10171,-6.3e-4 -0.17905,0.008 -0.23201,0.0273 -0.053,0.0189 -0.0796,0.0513 -0.0799,0.0975 9.8e-4,0.0468 0.0224,0.0819 0.0643,0.10528 0.0419,0.0234 0.0985,0.0351 0.16962,0.0351 0.10463,1e-5 0.20731,0.004 0.30805,0.0117 0.10073,0.008 0.18001,0.0195 0.23786,0.0351 0.21381,0.0562 0.36328,0.13486 0.44842,0.23591 0.0851,0.10107 0.13322,0.26159 0.14427,0.48156 0.007,0.17548 0.012,0.44453 0.0136,0.80716 0.002,0.36264 0.002,1.02943 0.002,2.00035 z m 1.74689,-5.25627 c -6.5e-4,-0.0536 0.008,-0.0945 0.0273,-0.12283 0.0188,-0.0283 0.0513,-0.0497 0.0975,-0.0643 0.0738,-0.0156 0.18359,-0.0273 0.32949,-0.0351 0.14589,-0.008 0.30641,-0.0117 0.48156,-0.0117 0.44192,-0.0188 0.89164,0.13974 1.34916,0.47572 0.45752,0.336 0.70447,0.96249 0.74087,1.87947 -0.0107,0.54103 -0.10626,0.96801 -0.2866,1.28092 -0.18035,0.31293 -0.38116,0.54103 -0.60244,0.68433 -0.10854,0.0842 -0.23071,0.142 -0.36653,0.17352 -0.13584,0.0315 -0.336,0.0465 -0.6005,0.0448 -0.17515,6.6e-4 -0.35517,-0.008 -0.54005,-0.0273 -0.1849,-0.0188 -0.35322,-0.0513 -0.50496,-0.0975 -0.0462,-0.0214 -0.0786,-0.0487 -0.0975,-0.0819 -0.0188,-0.0331 -0.0279,-0.0838 -0.0273,-0.15208 z"
         style="fill:#000000;-inkscape-font-specification:Trajan Pro Bold"
         id="path3027" />
      <path
         d="m 395.23244,558.9259 c 0.0312,-9.7e-4 0.0585,0.005 0.0819,0.0176 0.0234,0.0127 0.0429,0.038 0.0585,0.076 l 1.06061,2.66713 c 0.0279,0.0796 0.0266,0.14655 -0.004,0.20082 -0.0306,0.0543 -0.0709,0.0861 -0.12088,0.0955 -0.0686,0.008 -0.11471,0.0234 -0.13842,0.0468 -0.0237,0.0234 -0.0348,0.0546 -0.0331,0.0936 0.001,0.0445 0.0377,0.0725 0.10918,0.0838 0.0715,0.0114 0.17026,0.0198 0.29635,0.0254 0.58456,0.0149 1.10772,0.024 1.56947,0.0273 0.46174,0.003 0.81722,0.005 1.06646,0.004 0.24987,9.8e-4 0.41299,-0.009 0.48937,-0.0292 0.0763,-0.0205 0.11079,-0.0575 0.10333,-0.11113 -10e-6,-0.0936 -0.0624,-0.14038 -0.18717,-0.14038 -0.077,0 -0.15696,-0.004 -0.23981,-0.0117 -0.0829,-0.008 -0.1745,-0.0195 -0.2749,-0.0351 -0.12479,-0.005 -0.28466,-0.0968 -0.47961,-0.27685 -0.19498,-0.18002 -0.42504,-0.56085 -0.69018,-1.1425 -0.31205,-0.72074 -0.71912,-1.67083 -1.22121,-2.85025 -0.5021,-1.17942 -0.97387,-2.28778 -1.4153,-3.3251 -0.44145,-1.03731 -0.7272,-1.70317 -0.85727,-1.9976 -0.0657,-0.14719 -0.12544,-0.25442 -0.17937,-0.3217 -0.054,-0.0672 -0.12933,-0.10039 -0.22616,-0.0994 -0.0686,-0.001 -0.13421,0.0403 -0.19692,0.12478 -0.0627,0.0845 -0.13225,0.21967 -0.20861,0.40553 l -3.58736,8.34452 c -0.13128,0.33632 -0.27816,0.60342 -0.44063,0.80131 -0.16247,0.19789 -0.39513,0.32072 -0.69797,0.36848 -0.0637,6.5e-4 -0.13128,0.003 -0.20277,0.008 -0.0715,0.005 -0.13907,0.007 -0.20276,0.008 -0.0543,9.8e-4 -0.0939,0.0146 -0.11893,0.0409 -0.025,0.0263 -0.0374,0.0595 -0.037,0.0994 -3.3e-4,0.0536 0.0198,0.0906 0.0604,0.11113 0.0406,0.0205 0.10365,0.0302 0.18911,0.0292 0.37141,-0.002 0.7087,-0.01 1.01188,-0.0234 0.30317,-0.0136 0.49618,-0.0214 0.57904,-0.0234 0.22649,0.002 0.47929,0.01 0.75842,0.0234 0.27913,0.0136 0.53583,0.0214 0.77012,0.0234 0.0705,9.8e-4 0.12444,-0.009 0.16181,-0.0292 0.0374,-0.0205 0.0562,-0.0575 0.0565,-0.11113 0.002,-0.04 -0.0101,-0.0731 -0.037,-0.0994 -0.027,-0.0263 -0.0822,-0.04 -0.16572,-0.0409 l -0.20277,0 c -0.20699,-9.7e-4 -0.35061,-0.0341 -0.43087,-0.0994 -0.0803,-0.0653 -0.11861,-0.15695 -0.11503,-0.2749 -3.3e-4,-0.0816 0.0159,-0.19529 0.0487,-0.34119 0.0328,-0.1459 0.0842,-0.30252 0.15402,-0.46987 l 0.73308,-1.77809 c 0.014,-0.038 0.0289,-0.0634 0.0448,-0.076 0.0159,-0.0127 0.0426,-0.0185 0.0799,-0.0176 z m -2.94788,-0.73307 c -0.0244,1e-5 -0.0419,-0.008 -0.0526,-0.0234 -0.0107,-0.0156 -0.009,-0.039 0.006,-0.0702 l 1.32577,-3.35341 c 0.007,-0.0257 0.0163,-0.0523 0.0273,-0.08 0.0111,-0.0276 0.0279,-0.0426 0.0507,-0.0448 0.0153,0.002 0.0276,0.0172 0.037,0.0448 0.009,0.0276 0.0179,0.0543 0.0253,0.0799 l 1.29456,3.36902 c 0.0182,0.0494 -0.003,0.0754 -0.0624,0.078 z"
         style="fill:#000000;-inkscape-font-specification:Trajan Pro Bold"
         id="path3029" />
      <path
         d="m 402.76311,562.43528 c 0.3753,0.006 0.76718,-0.026 1.17564,-0.0975 0.40845,-0.0715 0.78083,-0.22096 1.11715,-0.44842 0.49391,-0.34899 0.84745,-0.72722 1.06062,-1.1347 0.21315,-0.40748 0.31713,-0.8559 0.31194,-1.34526 0.0143,-0.59692 -0.15468,-1.15777 -0.50691,-1.68256 -0.35224,-0.52477 -0.97353,-1.03493 -1.86387,-1.53048 l -0.5615,-0.31194 c -0.59952,-0.33598 -0.9953,-0.63883 -1.18734,-0.90854 -0.19204,-0.26969 -0.27978,-0.54914 -0.2632,-0.83835 0.0166,-0.45491 0.20568,-0.80455 0.56735,-1.04892 0.36165,-0.24434 0.79643,-0.36782 1.30432,-0.37043 0.43996,0.0104 0.7805,0.0832 1.02161,0.21836 0.24111,0.13519 0.41008,0.27036 0.50692,0.40553 0.14459,0.17873 0.24142,0.3516 0.29049,0.51861 0.0491,0.16703 0.0718,0.28531 0.0682,0.35483 0,0.15599 0.0468,0.23397 0.14038,0.23396 0.11177,10e-6 0.16896,-0.14036 0.17157,-0.42112 0.002,-0.51275 0.01,-0.88709 0.0234,-1.123 0.0136,-0.2359 0.0214,-0.39187 0.0234,-0.46792 -1e-5,-0.0461 -0.0156,-0.0825 -0.0468,-0.10918 -0.0312,-0.0266 -0.078,-0.0474 -0.14038,-0.0624 -0.18262,-0.05 -0.44128,-0.0981 -0.77596,-0.14428 -0.3347,-0.0461 -0.72593,-0.0708 -1.17369,-0.0741 -0.97678,0.01 -1.79174,0.25151 -2.44487,0.72527 -0.65314,0.47377 -0.99238,1.12106 -1.01772,1.94186 -0.0117,0.57775 0.14427,1.10676 0.46792,1.58702 0.32364,0.48027 0.88514,0.95468 1.6845,1.42324 l 0.79546,0.46792 c 0.58879,0.35582 0.96702,0.68531 1.1347,0.98848 0.16766,0.30317 0.24175,0.59757 0.22226,0.88319 -0.005,0.47962 -0.17418,0.87735 -0.50691,1.19319 -0.33275,0.31584 -0.79807,0.47961 -1.39596,0.49131 -0.44777,0.007 -0.88189,-0.0887 -1.30237,-0.2866 -0.42047,-0.19789 -0.71422,-0.53908 -0.88124,-1.02357 -0.0393,-0.12022 -0.0699,-0.2424 -0.0916,-0.36653 -0.0218,-0.12413 -0.0328,-0.23071 -0.0331,-0.31974 0.002,-0.05 -0.006,-0.0981 -0.0234,-0.14428 -0.0176,-0.0461 -0.0565,-0.0708 -0.11698,-0.0741 -0.0549,0.002 -0.0972,0.0335 -0.12673,0.0955 -0.0296,0.0621 -0.0445,0.1446 -0.0448,0.2476 -0.0101,0.12413 -0.025,0.35549 -0.0448,0.69408 -0.0198,0.33859 -0.0309,0.69473 -0.0331,1.06841 -0.003,0.14265 0.0143,0.24338 0.0507,0.3022 0.0364,0.0588 0.10788,0.10885 0.21446,0.15012 0.30252,0.1303 0.64891,0.22064 1.03917,0.271 0.39025,0.0504 0.78733,0.0744 1.19124,0.0721 z"
         style="fill:#000000;-inkscape-font-specification:Trajan Pro Bold"
         id="path3031" />
      <path
         d="m 409.68937,558.41119 c 0.001,0.6148 -0.001,1.1672 -0.008,1.65721 -0.007,0.49001 -0.0247,0.87864 -0.0546,1.16589 -0.0198,0.19594 -0.0582,0.35387 -0.11503,0.47377 -0.0569,0.1199 -0.1537,0.19594 -0.2905,0.22811 -0.12218,0.0312 -0.28335,0.0468 -0.48351,0.0468 -0.0842,0.002 -0.142,0.0175 -0.17352,0.0468 -0.0315,0.0292 -0.0465,0.0604 -0.0448,0.0936 0.003,0.0936 0.091,0.14037 0.26515,0.14037 0.142,-3.2e-4 0.29472,-0.004 0.45817,-0.01 0.16344,-0.006 0.32786,-0.0133 0.49326,-0.0214 0.16604,-6.5e-4 0.31747,-0.003 0.45427,-0.008 0.1368,-0.005 0.24533,-0.007 0.32559,-0.008 0.20179,3.2e-4 0.4338,0.004 0.69603,0.01 0.26222,0.006 0.56052,0.0133 0.89489,0.0214 0.33436,0.0156 0.71065,0.0273 1.12885,0.0351 0.4182,0.008 0.88416,0.0117 1.3979,0.0117 0.24988,0.007 0.4247,-0.007 0.52446,-0.0429 0.0998,-0.0357 0.16929,-0.13582 0.20861,-0.30024 0.0419,-0.15858 0.0829,-0.39903 0.12283,-0.72138 0.04,-0.32234 0.0614,-0.57059 0.0643,-0.74476 0.002,-0.0744 -0.006,-0.14395 -0.0214,-0.20862 -0.0159,-0.0647 -0.0504,-0.0991 -0.10334,-0.10333 -0.0455,-3.2e-4 -0.0793,0.0159 -0.10138,0.0487 -0.0221,0.0328 -0.0403,0.0842 -0.0546,0.15402 -0.0442,0.27003 -0.11179,0.48255 -0.20276,0.63754 -0.091,0.155 -0.22097,0.27003 -0.38993,0.34509 -0.18848,0.0754 -0.40424,0.12348 -0.64729,0.14427 -0.24306,0.0208 -0.45882,0.0299 -0.64728,0.0273 -0.68954,0.0104 -1.17045,-0.0611 -1.44275,-0.21446 -0.27231,-0.15337 -0.41008,-0.45102 -0.41333,-0.89294 -0.007,-0.22421 -0.009,-0.54396 -0.006,-0.95923 0.003,-0.41528 0.005,-0.75062 0.006,-1.00603 l 0,-1.06061 c -6.5e-4,-0.04 0.005,-0.0731 0.0156,-0.0994 0.011,-0.0263 0.0318,-0.04 0.0624,-0.0409 0.12997,1.9e-4 0.34833,0.003 0.65508,0.009 0.30674,0.006 0.60829,0.0137 0.90464,0.0231 0.29635,0.009 0.49391,0.0195 0.5927,0.03 0.25215,0.0254 0.43412,0.0838 0.5459,0.17546 0.11178,0.0916 0.18456,0.20472 0.21836,0.33924 0.0146,0.0864 0.0244,0.17093 0.0292,0.25346 0.005,0.0825 0.0107,0.15923 0.0175,0.23006 -6.6e-4,0.0319 0.008,0.0578 0.0273,0.078 0.0188,0.0202 0.0513,0.0305 0.0975,0.0312 0.0604,-0.006 0.0994,-0.0413 0.11698,-0.10723 0.0175,-0.066 0.0253,-0.129 0.0234,-0.18912 6.4e-4,-0.0614 0.007,-0.18814 0.0195,-0.38018 0.0123,-0.19204 0.0266,-0.36166 0.0429,-0.50886 0.0387,-0.32884 0.0666,-0.5641 0.0838,-0.70578 0.0172,-0.14167 0.0257,-0.22875 0.0254,-0.26125 -6.6e-4,-0.04 -0.0111,-0.0731 -0.0312,-0.0994 -0.0202,-0.0263 -0.0462,-0.04 -0.078,-0.0409 -0.0296,0.001 -0.0601,0.0182 -0.0916,0.0507 -0.0315,0.0325 -0.0738,0.0728 -0.12672,0.12088 -0.0614,0.0679 -0.14526,0.11536 -0.25151,0.14232 -0.10626,0.027 -0.24079,0.0471 -0.40358,0.0604 -0.12209,0.0102 -0.35277,0.0175 -0.69205,0.0219 -0.3393,0.004 -0.67858,0.007 -1.01787,0.008 -0.33929,9.7e-4 -0.56998,0.001 -0.69205,0.001 -0.038,-9.7e-4 -0.0634,-0.0146 -0.076,-0.0409 -0.0127,-0.0263 -0.0185,-0.0595 -0.0176,-0.0994 l 0,-3.27542 c 0,-0.0806 0.0312,-0.12217 0.0936,-0.12478 0.11062,2e-4 0.32089,0.003 0.63082,0.009 0.30992,0.006 0.61724,0.0137 0.92197,0.0231 0.30472,0.009 0.50459,0.0195 0.59963,0.03 0.33111,0.0328 0.55402,0.092 0.66873,0.17742 0.1147,0.0855 0.19333,0.1875 0.23591,0.30609 0.038,0.0825 0.0633,0.17093 0.076,0.26516 0.0127,0.0942 0.0185,0.16703 0.0175,0.21836 -0.001,0.0549 0.005,0.0972 0.0195,0.12673 0.0143,0.0296 0.0442,0.0445 0.0897,0.0448 0.0533,-0.005 0.091,-0.0338 0.11308,-0.0858 0.0221,-0.052 0.0364,-0.0962 0.0429,-0.13257 0.0159,-0.0959 0.0309,-0.24338 0.0448,-0.44258 0.014,-0.19918 0.025,-0.3428 0.0331,-0.43087 0.0182,-0.29601 0.0403,-0.50333 0.0663,-0.62194 0.026,-0.11859 0.0403,-0.19723 0.0429,-0.23591 9.7e-4,-0.0325 -0.005,-0.0611 -0.0175,-0.0858 -0.0127,-0.0247 -0.038,-0.0377 -0.076,-0.039 -0.0315,0.002 -0.066,0.0101 -0.10334,0.0254 -0.0374,0.0153 -0.0757,0.0276 -0.11503,0.037 -0.0562,0.009 -0.13485,0.0221 -0.2359,0.039 -0.10107,0.0169 -0.2148,0.0299 -0.34119,0.039 -0.12161,0.005 -0.45204,0.007 -0.99129,0.007 -0.53927,-2.8e-4 -1.08806,-0.001 -1.64638,-0.003 -0.55833,-0.002 -0.92688,-0.003 -1.10567,-0.003 -0.20829,-0.001 -0.49749,-0.006 -0.8676,-0.0156 -0.37011,-0.009 -0.74119,-0.0143 -1.11325,-0.0156 -0.10171,-6.4e-4 -0.17904,0.008 -0.23201,0.0273 -0.053,0.0189 -0.0796,0.0513 -0.0799,0.0975 9.7e-4,0.0468 0.0224,0.0819 0.0643,0.10528 0.0419,0.0234 0.0985,0.0351 0.16962,0.0351 0.10463,1e-5 0.20732,0.004 0.30805,0.0117 0.10073,0.008 0.18002,0.0195 0.23786,0.0351 0.21381,0.0562 0.36328,0.13486 0.44842,0.23591 0.0851,0.10107 0.13322,0.26159 0.14427,0.48156 0.007,0.17548 0.012,0.44453 0.0136,0.80716 0.002,0.36264 0.002,1.02943 0.002,2.00035 z"
         style="fill:#000000;-inkscape-font-specification:Trajan Pro Bold"
         id="path3033" />
      <path
         d="m 418.67618,558.41119 c 0.001,0.6148 -0.001,1.1672 -0.008,1.65721 -0.007,0.49001 -0.0247,0.87864 -0.0546,1.16589 -0.0198,0.19594 -0.0582,0.35387 -0.11503,0.47377 -0.0569,0.1199 -0.1537,0.19594 -0.2905,0.22811 -0.12218,0.0312 -0.28335,0.0468 -0.48351,0.0468 -0.0842,0.002 -0.142,0.0175 -0.17352,0.0468 -0.0315,0.0292 -0.0465,0.0604 -0.0448,0.0936 0.003,0.0936 0.091,0.14037 0.26515,0.14037 0.29245,-0.002 0.60829,-0.01 0.94754,-0.0234 0.33924,-0.0136 0.58489,-0.0214 0.73697,-0.0234 0.12802,0.002 0.41007,0.01 0.84615,0.0234 0.43607,0.0136 0.8663,0.0214 1.29068,0.0234 0.0867,0 0.15498,-0.0117 0.2047,-0.0351 0.0497,-0.0234 0.0751,-0.0585 0.076,-0.10528 -3.3e-4,-0.0331 -0.0153,-0.0643 -0.0448,-0.0936 -0.0296,-0.0292 -0.0718,-0.0448 -0.12673,-0.0468 -0.0903,0 -0.19822,-0.004 -0.32364,-0.0117 -0.12543,-0.008 -0.24111,-0.0195 -0.34704,-0.0351 -0.20342,-0.0322 -0.33859,-0.10821 -0.40553,-0.22811 -0.0669,-0.1199 -0.10853,-0.27783 -0.12477,-0.47377 -0.0306,-0.28627 -0.0514,-0.67295 -0.0624,-1.16004 -0.0111,-0.48709 -0.0163,-1.04144 -0.0156,-1.66306 l 0,-0.18716 c 6.5e-4,-0.0387 0.011,-0.0666 0.0312,-0.0838 0.0202,-0.0172 0.0461,-0.0257 0.078,-0.0254 l 1.23218,0.0312 c 0.0465,-9.7e-4 0.09,0.005 0.13063,0.0176 0.0406,0.0127 0.0802,0.038 0.11893,0.076 0.0949,0.11926 0.26384,0.35647 0.50691,0.71163 0.24305,0.35516 0.5056,0.72105 0.78766,1.09765 0.3753,0.51309 0.70869,0.92966 1.00017,1.24973 0.29147,0.32007 0.58197,0.55338 0.8715,0.69993 0.17156,0.0929 0.37042,0.16052 0.59659,0.20276 0.22615,0.0422 0.5264,0.063 0.90074,0.0624 l 1.31017,0 c 0.0861,9.8e-4 0.15174,-0.009 0.19692,-0.0292 0.0452,-0.0205 0.0679,-0.0575 0.0682,-0.11113 -3.3e-4,-0.0331 -0.0153,-0.0643 -0.0448,-0.0936 -0.0296,-0.0292 -0.0718,-0.0448 -0.12673,-0.0468 -0.0526,6.5e-4 -0.10334,-6.5e-4 -0.15207,-0.004 -0.0487,-0.003 -0.10724,-0.0123 -0.17547,-0.0273 -0.10887,-0.009 -0.28498,-0.065 -0.52835,-0.16767 -0.2434,-0.10269 -0.55599,-0.33794 -0.93779,-0.70578 -0.41106,-0.41495 -0.86403,-0.91861 -1.35891,-1.51098 -0.49489,-0.59237 -1.04535,-1.2637 -1.65136,-2.014 0.66613,-0.5316 1.15094,-1.03201 1.45445,-1.50123 0.30348,-0.46921 0.45296,-0.94623 0.44842,-1.43105 -0.0159,-0.44841 -0.12836,-0.83054 -0.33729,-1.14639 -0.20895,-0.31584 -0.41886,-0.542 -0.62974,-0.67848 -0.37467,-0.23493 -0.79124,-0.38895 -1.24973,-0.46207 -0.4585,-0.0731 -0.91017,-0.10625 -1.35501,-0.0994 -0.24403,0.001 -0.59432,0.006 -1.05085,0.0156 -0.45655,0.009 -0.81854,0.0143 -1.08596,0.0156 -0.15598,-0.001 -0.41334,-0.006 -0.77207,-0.0156 -0.35874,-0.009 -0.72528,-0.0143 -1.09961,-0.0156 -0.10171,-6.3e-4 -0.17905,0.008 -0.23201,0.0273 -0.053,0.0189 -0.0796,0.0513 -0.0799,0.0975 9.8e-4,0.0468 0.0224,0.0819 0.0643,0.10528 0.0419,0.0234 0.0985,0.0351 0.16962,0.0351 0.10463,1e-5 0.20731,0.004 0.30805,0.0117 0.10073,0.008 0.18001,0.0195 0.23786,0.0351 0.21381,0.0562 0.36328,0.13486 0.44842,0.23591 0.0851,0.10107 0.13322,0.26159 0.14427,0.48156 0.007,0.17548 0.012,0.44453 0.0137,0.80716 0.002,0.36264 0.002,1.02943 0.002,2.00035 z m 1.74689,-5.25627 c -6.5e-4,-0.0536 0.008,-0.0945 0.0273,-0.12283 0.0188,-0.0283 0.0513,-0.0497 0.0975,-0.0643 0.0738,-0.0156 0.18359,-0.0273 0.32949,-0.0351 0.14589,-0.008 0.30641,-0.0117 0.48156,-0.0117 0.44192,-0.0188 0.89164,0.13974 1.34916,0.47572 0.45752,0.336 0.70447,0.96249 0.74087,1.87947 -0.0107,0.54103 -0.10626,0.96801 -0.2866,1.28092 -0.18035,0.31293 -0.38116,0.54103 -0.60244,0.68433 -0.10854,0.0842 -0.23071,0.142 -0.36653,0.17352 -0.13584,0.0315 -0.336,0.0465 -0.6005,0.0448 -0.17515,6.6e-4 -0.35517,-0.008 -0.54005,-0.0273 -0.1849,-0.0188 -0.35322,-0.0513 -0.50496,-0.0975 -0.0461,-0.0214 -0.0786,-0.0487 -0.0975,-0.0819 -0.0188,-0.0331 -0.0279,-0.0838 -0.0273,-0.15208 z"
         style="fill:#000000;-inkscape-font-specification:Trajan Pro Bold"
         id="path3035" />
    </g>
    <g
       style="font-size:3.67279124000000000px;font-style:normal;font-variant:normal;font-weight:normal;font-stretch:normal;line-height:125%;letter-spacing:0px;word-spacing:0px;fill:#000000;fill-opacity:1;stroke:#ffffff;stroke-width:0.09181978000000000;font-family:TacticSansExd-Reg;-inkscape-font-specification:TacticSansExd-Reg"
       id="text3006">
      <path
         d="m 317.53875,572.74536 c 0.48357,0.002 0.84227,-0.1137 1.07611,-0.34615 0.23383,-0.23246 0.35013,-0.59208 0.34891,-1.07887 l 0,-0.65375 -1.30749,0 0,0.41869 c 0.003,0.22113 -0.0415,0.37753 -0.13314,0.46919 -0.0917,0.0917 -0.24807,0.13605 -0.46919,0.13314 l -3.45238,0 c -0.21792,0.003 -0.3734,-0.0415 -0.46644,-0.13314 -0.0931,-0.0917 -0.13834,-0.24806 -0.13589,-0.46919 l 0,-1.82168 c -0.002,-0.22113 0.0428,-0.37752 0.13589,-0.46919 0.093,-0.0917 0.24852,-0.13604 0.46644,-0.13314 l 3.45238,0 c 0.22112,-0.003 0.37752,0.0415 0.46919,0.13314 0.0917,0.0917 0.13604,0.24806 0.13314,0.46919 l 0,0.36727 1.30749,0 0,-0.60233 c 0.001,-0.48678 -0.11508,-0.84641 -0.34891,-1.07886 -0.23384,-0.23245 -0.59254,-0.34784 -1.07611,-0.34616 l -4.46606,0 c -0.48358,-0.002 -0.84228,0.11371 -1.07611,0.34616 -0.23383,0.23245 -0.35014,0.59208 -0.34891,1.07886 l 0,2.2918 c -0.001,0.48679 0.11508,0.84641 0.34891,1.07887 0.23383,0.23245 0.59253,0.34783 1.07611,0.34615 z"
         style="font-weight:normal;fill:#000000;stroke:#ffffff;-inkscape-font-specification:TacticSansExtExd-Bld"
         id="path3038" />
      <path
         d="m 329.23854,572.74536 c 0.48357,0.002 0.84227,-0.1137 1.07611,-0.34615 0.23382,-0.23246 0.35013,-0.59208 0.34891,-1.07887 l 0,-2.2918 c 0.001,-0.48678 -0.11509,-0.84641 -0.34891,-1.07886 -0.23384,-0.23245 -0.59254,-0.34784 -1.07611,-0.34616 l -4.65704,0 c -0.48358,-0.002 -0.84229,0.11371 -1.07612,0.34616 -0.23383,0.23245 -0.35013,0.59208 -0.34891,1.07886 l 0,2.2918 c -0.001,0.48679 0.11508,0.84641 0.34891,1.07887 0.23383,0.23245 0.59254,0.34783 1.07612,0.34615 z m -4.12817,-1.07244 c -0.21792,0.002 -0.37339,-0.0428 -0.46644,-0.13589 -0.093,-0.093 -0.13834,-0.24852 -0.13589,-0.46644 l 0,-1.7923 c -0.002,-0.21791 0.0428,-0.37339 0.13589,-0.46644 0.0931,-0.093 0.24852,-0.13833 0.46644,-0.13589 l 3.59929,0 c 0.22113,-0.002 0.37752,0.0428 0.4692,0.13589 0.0917,0.093 0.13603,0.24853 0.13313,0.46644 l 0,1.7923 c 0.003,0.21792 -0.0415,0.3734 -0.13313,0.46644 -0.0917,0.093 -0.24807,0.13834 -0.4692,0.13589 l -3.59929,0 z"
         style="font-weight:normal;fill:#000000;stroke:#ffffff;-inkscape-font-specification:TacticSansExtExd-Bld"
         id="path3040" />
      <path
         d="m 341.05838,571.25423 -4.96555,-3.65071 -1.16059,0 0,5.14184 1.3075,0 0,-3.68743 5.02431,3.68743 1.10183,0 0,-5.14184 -1.3075,0 z"
         style="font-weight:normal;fill:#000000;stroke:#ffffff;-inkscape-font-specification:TacticSansExtExd-Bld"
         id="path3042" />
      <path
         d="m 346.39079,567.60352 0,1.11651 2.87943,0 0,4.02533 1.35157,0 0,-4.02533 2.87943,0 0,-1.11651 z"
         style="font-weight:normal;fill:#000000;stroke:#ffffff;-inkscape-font-specification:TacticSansExtExd-Bld"
         id="path3044" />
      <path
         d="m 363.2339,570.8943 0.1616,-0.0294 c 0.44853,0.004 0.77448,-0.0955 0.97787,-0.2975 0.20337,-0.20199 0.30345,-0.52887 0.30024,-0.98062 l 0,-0.70517 c 0.003,-0.45174 -0.0969,-0.77861 -0.30024,-0.98062 -0.20339,-0.20199 -0.52934,-0.30116 -0.97787,-0.29749 l -5.8617,0 0,5.14184 1.35157,0 0,-1.7923 2.7619,0 1.58663,1.7923 1.66008,0 z m -0.4187,-2.35056 c 0.19144,-0.003 0.32458,0.0341 0.39942,0.1111 0.0748,0.077 0.11063,0.21134 0.10742,0.40309 l 0,0.47011 c 0.003,0.19175 -0.0326,0.32611 -0.10742,0.40308 -0.0748,0.077 -0.20798,0.11401 -0.39942,0.1111 l -3.92983,0 0,-1.49848 z"
         style="font-weight:normal;fill:#000000;stroke:#ffffff;-inkscape-font-specification:TacticSansExtExd-Bld"
         id="path3046" />
      <path
         d="m 376.89,572.74536 -3.45238,-5.14184 -1.49848,0 -3.45238,5.14184 1.51317,0 0.63171,-0.99164 4.04736,0 0.63172,0.99164 z m -4.23101,-4.1502 1.35892,2.13019 -2.72518,0 z"
         style="font-weight:normal;fill:#000000;stroke:#ffffff;-inkscape-font-specification:TacticSansExtExd-Bld"
         id="path3048" />
      <path
         d="m 386.60593,572.74536 c 0.48357,0.002 0.84228,-0.1137 1.07612,-0.34615 0.23382,-0.23246 0.35012,-0.59208 0.34891,-1.07887 l 0,-0.65375 -1.3075,0 0,0.41869 c 0.003,0.22113 -0.0415,0.37753 -0.13314,0.46919 -0.0917,0.0917 -0.24807,0.13605 -0.46919,0.13314 l -3.45238,0 c -0.21792,0.003 -0.3734,-0.0415 -0.46644,-0.13314 -0.093,-0.0917 -0.13834,-0.24806 -0.13589,-0.46919 l 0,-1.82168 c -0.002,-0.22113 0.0428,-0.37752 0.13589,-0.46919 0.093,-0.0917 0.24852,-0.13604 0.46644,-0.13314 l 3.45238,0 c 0.22112,-0.003 0.37752,0.0415 0.46919,0.13314 0.0917,0.0917 0.13604,0.24806 0.13314,0.46919 l 0,0.36727 1.3075,0 0,-0.60233 c 0.001,-0.48678 -0.11509,-0.84641 -0.34891,-1.07886 -0.23384,-0.23245 -0.59255,-0.34784 -1.07612,-0.34616 l -4.46605,0 c -0.48358,-0.002 -0.84229,0.11371 -1.07612,0.34616 -0.23383,0.23245 -0.35013,0.59208 -0.34891,1.07886 l 0,2.2918 c -0.001,0.48679 0.11508,0.84641 0.34891,1.07887 0.23383,0.23245 0.59254,0.34783 1.07612,0.34615 z"
         style="font-weight:normal;fill:#000000;stroke:#ffffff;-inkscape-font-specification:TacticSansExtExd-Bld"
         id="path3050" />
      <path
         d="m 391.98125,567.60352 0,1.11651 2.87944,0 0,4.02533 1.35157,0 0,-4.02533 2.87943,0 0,-1.11651 z"
         style="font-weight:normal;fill:#000000;stroke:#ffffff;-inkscape-font-specification:TacticSansExtExd-Bld"
         id="path3052" />
      <path
         d="m 403.161,572.74536 1.36626,0 0,-5.14184 -1.36626,0 z"
         style="font-weight:normal;fill:#000000;stroke:#ffffff;-inkscape-font-specification:TacticSansExtExd-Bld"
         id="path3054" />
      <path
         d="m 415.03483,571.25423 -4.96555,-3.65071 -1.16059,0 0,5.14184 1.3075,0 0,-3.68743 5.02431,3.68743 1.10183,0 0,-5.14184 -1.3075,0 z"
         style="font-size:7.34558249000000000px;font-weight:bold;letter-spacing:3.51761603000000010px;fill:#000000;stroke:#ffffff;font-family:TacticSansExtExd-Bld;-inkscape-font-specification:TacticSansExtExd-Bld Bold"
         id="path3056" />
      <path
         d="m 420.81049,571.32034 c -0.001,0.48679 0.11507,0.84641 0.34891,1.07887 0.23383,0.23245 0.59253,0.34783 1.07611,0.34615 l 4.65704,0 c 0.48357,0.002 0.84228,-0.1137 1.07611,-0.34615 0.23383,-0.23246 0.35013,-0.59208 0.34891,-1.07887 l 0,-1.43972 -3.68743,0 0,0.95491 2.37994,0 0,0.29382 c 0.003,0.22114 -0.0415,0.37753 -0.13314,0.4692 -0.0917,0.0917 -0.24807,0.13604 -0.46919,0.13313 l -3.64336,0 c -0.22114,0.003 -0.37753,-0.0415 -0.4692,-0.13313 -0.0917,-0.0917 -0.13604,-0.24806 -0.13313,-0.4692 l 0,-1.88044 c -0.003,-0.22113 0.0415,-0.37752 0.13313,-0.46919 0.0917,-0.0917 0.24806,-0.13604 0.4692,-0.13314 l 3.59928,0 c 0.22113,-0.003 0.37753,0.0415 0.4692,0.13314 0.0917,0.0917 0.13604,0.24806 0.13313,0.46919 l 0,0.12487 1.35157,0 0,-0.34524 c 0.001,-0.48678 -0.11508,-0.84641 -0.34891,-1.07886 -0.23383,-0.23245 -0.59254,-0.34784 -1.07611,-0.34616 l -4.65704,0 c -0.48358,-0.002 -0.84228,0.11371 -1.07611,0.34616 -0.23384,0.23245 -0.35014,0.59208 -0.34891,1.07886 l 0,2.2918 z"
         style="font-size:7.34558249000000000px;font-weight:bold;letter-spacing:3.51761603000000010px;fill:#000000;stroke:#ffffff;font-family:TacticSansExtExd-Bld;-inkscape-font-specification:TacticSansExtExd-Bld Bold"
         id="path3058" />
    </g>
  </g>
</svg>
