<?xml version="1.0" encoding="UTF-8" standalone="no"?>
<svg
   xmlns:dc="http://purl.org/dc/elements/1.1/"
   xmlns:cc="http://creativecommons.org/ns#"
   xmlns:rdf="http://www.w3.org/1999/02/22-rdf-syntax-ns#"
   xmlns:svg="http://www.w3.org/2000/svg"
   xmlns="http://www.w3.org/2000/svg"
   xmlns:sodipodi="http://sodipodi.sourceforge.net/DTD/sodipodi-0.dtd"
   xmlns:inkscape="http://www.inkscape.org/namespaces/inkscape"
   width="97.124634"
   height="25"
   viewBox="0 0 14.997986 3.8634914"
   id="svg2"
   version="1.1"
   inkscape:version="0.48.2 r9819"
   sodipodi:docname="find-us-on-facebook2.svg">
  <metadata
     id="metadata20">
    <rdf:RDF>
      <cc:Work
         rdf:about="">
        <dc:format>image/svg+xml</dc:format>
        <dc:type
           rdf:resource="http://purl.org/dc/dcmitype/StillImage" />
      </cc:Work>
    </rdf:RDF>
  </metadata>
  <defs
     id="defs18" />
  <sodipodi:namedview
     pagecolor="#ffffff"
     bordercolor="#666666"
     borderopacity="1"
     objecttolerance="10"
     gridtolerance="10"
     guidetolerance="10"
     inkscape:pageopacity="0"
     inkscape:pageshadow="2"
     inkscape:window-width="1920"
     inkscape:window-height="1017"
     id="namedview16"
     showgrid="false"
     inkscape:zoom="2.8420036"
     inkscape:cx="155.47819"
     inkscape:cy="-8.332112"
     inkscape:window-x="-8"
     inkscape:window-y="-8"
     inkscape:window-maximized="1"
     inkscape:current-layer="svg2"
     fit-margin-top="0"
     fit-margin-left="0"
     fit-margin-right="0"
     fit-margin-bottom="0" />
  <rect
     style="fill:#ffffff;fill-opacity:1;stroke:none"
     id="rect3025"
     width="16.20435"
     height="6.7971263"
     x="0.21169727"
     y="-1.3023245" />
  <g
     id="g3017"
     transform="matrix(0.50000003,0,0,0.50000003,0.06316467,0)">
    <g
       transform="matrix(0.07775971,0,0,0.07775971,-0.14957229,2.8379461e-8)"
       id="g4"
       style="fill:#465b94">
      <path
         id="path6"
         d="m 123.108,6.785 h 17.888 v 4.558 h -12.685 v 7.095 h 10.32 v 4.515 h -10.32 V 33.66 h -5.203 V 6.785 z m 23.994,3.44 c -1.979,0 -3.096,-1.204 -3.096,-3.053 0,-1.806 1.117,-3.053 3.096,-3.053 2.021,0 3.139,1.247 3.139,3.053 -0.001,1.849 -1.119,3.053 -3.139,3.053 z m -2.538,23.434 V 13.965 l 5.074,-0.731 v 20.425 h -5.074 z m 22.802,0 V 21.576 c 0,-2.924 -1.16,-3.913 -3.439,-3.913 -1.763,0 -3.397,0.903 -4.386,1.849 v 14.147 h -5.074 V 13.922 l 5.074,-0.688 v 3.139 c 1.763,-1.935 4.128,-3.182 6.535,-3.182 3.999,0 6.364,2.58 6.364,6.837 v 13.631 h -5.074 z M 190.388,4.936 195.463,4.248 V 33.66 h -5.075 v -1.935 c -1.332,1.29 -3.139,2.58 -5.59,2.58 -5.245,0 -8.643,-4.257 -8.643,-10.406 0,-6.321 4.386,-10.707 10.019,-10.707 1.419,0 2.968,0.258 4.214,0.645 V 4.936 z m -3.741,12.297 c -3.397,0 -5.332,2.795 -5.332,6.45 0,3.87 1.935,6.321 4.988,6.321 1.677,0 2.967,-0.602 4.084,-1.634 v -9.976 c -0.988,-0.73 -2.235,-1.161 -3.74,-1.161 z m 28.94,-3.397 v 12.083 c 0,2.924 1.203,3.87 3.354,3.87 1.805,0 3.396,-0.817 4.342,-1.72 V 13.836 h 5.074 V 33.53 l -5.074,0.688 v -2.924 c -1.633,1.763 -3.998,3.01 -6.535,3.01 -3.869,0 -6.234,-2.58 -6.234,-6.837 V 13.836 h 5.073 z m 24.061,20.511 c -2.58,0 -5.719,-0.731 -7.697,-1.849 l 1.119,-3.956 c 1.977,1.118 4.514,1.849 6.707,1.849 1.979,0 3.268,-0.817 3.268,-2.193 0,-1.548 -1.676,-2.107 -3.998,-2.666 -3.742,-0.86 -6.709,-2.408 -6.709,-6.149 0,-3.741 3.139,-6.192 7.912,-6.192 2.451,0 5.375,0.645 7.225,1.591 l -1.119,3.956 c -1.934,-0.989 -4.471,-1.634 -6.234,-1.634 -1.85,0 -2.967,0.688 -2.967,1.978 0,1.505 1.678,2.021 4,2.58 3.783,0.903 6.75,2.365 6.75,6.235 -0.001,3.698 -3.183,6.45 -8.257,6.45 z m 31.045,-0.043 c -5.805,0 -10.018,-3.956 -10.018,-10.535 0,-6.536 4.428,-10.621 10.277,-10.621 5.848,0 10.018,4.042 10.018,10.578 0,6.493 -4.47,10.578 -10.277,10.578 z m 0.086,-17.071 c -3.311,0 -5.115,2.666 -5.115,6.493 0,3.784 1.891,6.45 5.203,6.45 3.268,0 5.072,-2.58 5.072,-6.407 0,-3.827 -1.891,-6.536 -5.16,-6.536 z m 26.867,16.426 V 21.576 c 0,-2.924 -1.16,-3.913 -3.439,-3.913 -1.764,0 -3.398,0.903 -4.387,1.849 v 14.147 h -5.074 V 13.922 l 5.074,-0.688 v 3.139 c 1.764,-1.935 4.129,-3.182 6.535,-3.182 4,0 6.365,2.58 6.365,6.837 v 13.631 h -5.074 z"
         inkscape:connector-curvature="0" />
    </g>
    <g
       transform="matrix(0.07775971,0,0,0.07775971,-0.14957229,2.8379461e-8)"
       id="g8"
       style="fill:#465b94">
      <path
         id="path10"
         d="m 123.108,51.579 h 28.285 v 7.207 h -20.058 v 11.219 h 16.319 v 7.139 h -16.319 v 16.931 h -8.227 V 51.579 z m 47.891,38.892 c -2.244,2.72 -4.964,4.623 -8.84,4.623 -5.644,0 -9.723,-3.875 -9.723,-8.839 0,-5.779 4.216,-10.675 18.562,-11.15 v -0.748 c 0,-4.216 -1.769,-5.983 -6.256,-5.983 -3.195,0 -7.071,1.428 -10.403,3.331 l -1.631,-6.323 c 3.06,-1.903 7.955,-3.671 13.122,-3.671 9.655,0 13.395,4.283 13.19,12.918 v 11.219 c 0,2.38 0.408,2.72 2.788,2.856 l -0.612,6.051 c -5.983,0.681 -8.771,-1.155 -9.927,-4.283 h -0.27 z m 0,-11.152 c -7.819,0.952 -10.675,2.516 -10.675,5.848 0,2.38 1.835,4.08 4.691,4.08 2.516,0 4.555,-1.156 5.983,-2.72 v -7.208 z m 29.491,15.775 c -10.2,0 -16.251,-6.323 -16.251,-16.59 0,-10.199 6.664,-16.794 16.523,-16.794 4.283,0 7.955,0.951 10.811,2.651 l -1.699,6.459 c -2.584,-1.632 -5.576,-2.516 -8.5,-2.516 -5.779,0 -8.907,3.943 -8.907,9.995 0,6.392 3.604,10.131 8.907,10.131 3.264,0 6.256,-0.884 8.703,-2.447 l 1.293,6.527 c -2.722,1.633 -6.665,2.584 -10.88,2.584 z m 21.664,-14.958 c 0.34,5.1 3.809,8.567 9.383,8.567 3.332,0 6.936,-1.088 9.791,-2.856 l 1.021,6.664 c -2.992,1.632 -7.141,2.583 -11.355,2.583 -10.062,0 -16.727,-6.391 -16.727,-16.386 0,-10.199 6.799,-16.998 16.182,-16.998 8.295,0 12.92,5.031 12.92,12.714 0,1.7 -0.273,3.876 -0.68,5.235 l -20.535,0.272 v 0.205 z m 13.668,-4.964 v -0.544 c 0,-4.215 -1.836,-6.867 -5.984,-6.867 -4.42,0 -7.07,3.604 -7.479,7.479 l 13.463,-0.068 z m 27.939,19.854 c -2.039,0 -4.963,-0.408 -7.002,-1.088 l -7.684,1.155 V 48.655 l 8.023,-1.088 v 18.154 c 2.107,-2.039 4.963,-4.011 8.771,-4.011 8.295,0 13.734,6.73 13.734,16.386 0.002,9.995 -6.934,16.93 -15.842,16.93 z M 263.558,68.44 c -2.652,0 -4.691,1.021 -6.459,2.584 v 15.843 c 1.496,1.155 3.535,1.768 5.914,1.768 5.373,0 8.432,-4.352 8.432,-10.199 0,-6.12 -2.924,-9.996 -7.887,-9.996 z m 35.693,26.654 c -9.18,0 -15.844,-6.255 -15.844,-16.658 0,-10.335 7.004,-16.794 16.252,-16.794 9.246,0 15.842,6.392 15.842,16.727 0,10.266 -7.072,16.725 -16.25,16.725 z m 0.135,-26.993 c -5.234,0 -8.09,4.216 -8.09,10.268 0,5.983 2.99,10.198 8.227,10.198 5.168,0 8.023,-4.079 8.023,-10.131 0,-6.051 -2.992,-10.335 -8.16,-10.335 z m 35.85,26.993 c -9.178,0 -15.842,-6.255 -15.842,-16.658 0,-10.335 7.004,-16.794 16.25,-16.794 9.248,0 15.842,6.392 15.842,16.727 0,10.266 -7.07,16.725 -16.25,16.725 z m 0.137,-26.993 c -5.236,0 -8.092,4.216 -8.092,10.268 0,5.983 2.992,10.198 8.229,10.198 5.166,0 8.021,-4.079 8.021,-10.131 0,-6.051 -2.99,-10.335 -8.158,-10.335 z m 29.668,10.878 v 15.095 h -8.023 V 48.655 l 8.023,-1.088 v 29.101 h 0.135 L 376.395,62.73 h 9.588 l -12.987,14.89 13.055,16.454 h -9.588 L 365.176,78.979 h -0.135 z"
         inkscape:connector-curvature="0" />
    </g>
    <path
       id="path12"
       d="M 7.1508981,2.8379461e-8 H 0.27686196 A 0.42627873,0.42627873 0 0 0 -0.14957229,0.42643428 V 7.3003926 A 0.42643425,0.42643425 0 0 0 0.27686196,7.7268269 H 7.1508981 A 0.42651201,0.42651201 0 0 0 7.5772546,7.3003926 V 0.42643428 A 0.42635649,0.42635649 0 0 0 7.1508981,2.8379461e-8 z"
       inkscape:connector-curvature="0"
       style="fill:#485a95" />
    <path
       id="path14"
       d="M 6.1862111,4.7346333 6.3365206,3.5684709 H 5.1817889 V 2.8239217 c 0,-0.3375549 0.0937,-0.5676459 0.5779102,-0.5676459 L 6.3771112,2.2560425 V 1.212896 C 6.2703471,1.1987437 5.9038656,1.1670178 5.4773536,1.1670178 c -0.8903487,0 -1.499907,0.5434626 -1.499907,1.5415084 V 3.5685486 H 2.9706138 V 4.734711 H 3.9775243 V 7.7269824 H 5.1818667 V 4.7346333 h 1.0043444 z"
       inkscape:connector-curvature="0"
       style="fill:#ffffff" />
  </g>
</svg>
