<?xml version="1.0" encoding="UTF-8" standalone="no"?>
<!-- Created with Inkscape (http://www.inkscape.org/) -->

<svg
   xmlns:dc="http://purl.org/dc/elements/1.1/"
   xmlns:cc="http://creativecommons.org/ns#"
   xmlns:rdf="http://www.w3.org/1999/02/22-rdf-syntax-ns#"
   xmlns:svg="http://www.w3.org/2000/svg"
   xmlns="http://www.w3.org/2000/svg"
   xmlns:sodipodi="http://sodipodi.sourceforge.net/DTD/sodipodi-0.dtd"
   xmlns:inkscape="http://www.inkscape.org/namespaces/inkscape"
   id="svg3027"
   version="1.1"
   inkscape:version="0.48.2 r9819"
   width="87.03125"
   height="25"
   xml:space="preserve"
   sodipodi:docname="find-us-on-facebook.svg"><metadata
     id="metadata3033"><rdf:RDF><cc:Work
         rdf:about=""><dc:format>image/svg+xml</dc:format><dc:type
           rdf:resource="http://purl.org/dc/dcmitype/StillImage" /><dc:title></dc:title></cc:Work></rdf:RDF></metadata><defs
     id="defs3031"><clipPath
       clipPathUnits="userSpaceOnUse"
       id="clipPath3059"><path
         d="M 0,500 510,500 510,0 0,0 0,500 z"
         id="path3061"
         inkscape:connector-curvature="0" /></clipPath></defs><sodipodi:namedview
     pagecolor="#ffffff"
     bordercolor="#666666"
     borderopacity="1"
     objecttolerance="10"
     gridtolerance="10"
     guidetolerance="10"
     inkscape:pageopacity="0"
     inkscape:pageshadow="2"
     inkscape:window-width="1920"
     inkscape:window-height="1017"
     id="namedview3029"
     showgrid="false"
     fit-margin-top="0"
     fit-margin-left="0"
     fit-margin-right="0"
     fit-margin-bottom="0"
     inkscape:zoom="6.0416"
     inkscape:cx="67.013962"
     inkscape:cy="-32.538899"
     inkscape:window-x="-8"
     inkscape:window-y="-8"
     inkscape:window-maximized="1"
     inkscape:current-layer="g3035" /><g
     id="g3035"
     inkscape:groupmode="layer"
     inkscape:label="FB-FindusonFacebook-online-broadcast"
     transform="matrix(1.25,0,0,-1.25,-57.985656,262.59462)"><g
       id="g3958"><rect
         ry="2"
         transform="scale(1,-1)"
         y="-210.0757"
         x="46.388527"
         height="20"
         width="69.625"
         id="rect3103"
         style="fill:#212121;fill-opacity:1;stroke:none" /><g
         style="fill:#ffffff"
         transform="matrix(0.1668772,0,0,0.1668772,112.06389,206.61004)"
         id="g3063"><path
           inkscape:connector-curvature="0"
           id="path3065"
           style="fill:#ffffff;fill-opacity:1;fill-rule:nonzero;stroke:none"
           d="m 0,0 -63.786,0 c -2.187,0 -3.957,-1.771 -3.957,-3.957 l 0,-63.786 c 0,-2.186 1.77,-3.958 3.957,-3.958 l 63.786,0 c 2.184,0 3.957,1.772 3.957,3.958 l 0,63.786 C 3.957,-1.771 2.184,0 0,0" /></g><g
         style="fill:#ffffff"
         transform="matrix(0.1668772,0,0,0.1668772,49.677821,204.11476)"
         id="g3067"><path
           inkscape:connector-curvature="0"
           id="path3069"
           style="fill:#ffffff;fill-opacity:1;fill-rule:nonzero;stroke:none"
           d="m 0,0 27.863,0 0,-5.774 -21.727,0 0,-14.655 17.972,0 0,-5.701 -17.972,0 0,-18.983 -6.136,0 L 0,0 z" /></g><g
         style="fill:#ffffff"
         transform="matrix(0.1668772,0,0,0.1668772,55.547159,196.58646)"
         id="g3071"><path
           inkscape:connector-curvature="0"
           id="path3073"
           style="fill:#ffffff;fill-opacity:1;fill-rule:nonzero;stroke:none"
           d="M 0,0 0,33.203 5.918,34.14 5.918,0 0,0 z m 2.959,40.346 c -2.671,0 -3.896,2.022 -3.896,4.261 0,2.237 1.225,4.258 3.896,4.258 2.671,0 3.897,-2.021 3.897,-4.258 0,-2.239 -1.226,-4.261 -3.897,-4.261" /></g><g
         style="fill:#ffffff"
         transform="matrix(0.1668772,0,0,0.1668772,61.552068,196.58646)"
         id="g3075"><path
           inkscape:connector-curvature="0"
           id="path3077"
           style="fill:#ffffff;fill-opacity:1;fill-rule:nonzero;stroke:none"
           d="m 0,0 0,20.787 c 0,5.701 -2.166,7.652 -6.856,7.652 -3.464,0 -6.785,-1.804 -8.662,-3.611 l 0,-24.828 -5.919,0 0,33.203 5.919,0.937 0,-4.981 c 3.032,3.033 6.929,4.981 10.755,4.981 6.711,0 10.681,-4.258 10.681,-11.404 L 5.918,0 0,0 z" /></g><g
         style="fill:#ffffff"
         transform="matrix(0.1668772,0,0,0.1668772,66.614255,201.39218)"
         id="g3079"><path
           inkscape:connector-curvature="0"
           id="path3081"
           style="fill:#ffffff;fill-opacity:1;fill-rule:nonzero;stroke:none"
           d="m 0,0 c -6.712,0 -10.464,-5.483 -10.464,-12.268 0,-7.291 3.682,-12.128 9.815,-12.128 3.106,0 5.774,1.228 8.013,3.177 l 0,18.839 C 5.416,-0.793 2.889,0 0,0 m 7.364,19.85 5.918,0.937 0,-49.585 -5.918,0 0,3.033 c -2.383,-2.239 -5.342,-4.114 -9.239,-4.114 -9.312,0 -14.725,7.505 -14.725,17.467 0,10.032 6.929,17.754 16.817,17.754 2.384,0 5.052,-0.432 7.147,-1.081 l 0,15.589 z" /></g><g
         style="fill:#ffffff"
         transform="matrix(0.1668772,0,0,0.1668772,73.564273,202.10322)"
         id="g3083"><path
           inkscape:connector-curvature="0"
           id="path3085"
           style="fill:#ffffff;fill-opacity:1;fill-rule:nonzero;stroke:none"
           d="m 0,0 0,-20.787 c 0,-5.704 2.166,-7.652 6.494,-7.652 3.826,0 7.147,1.804 9.025,3.608 l 0,24.831 5.918,0 0,-33.203 -5.918,-0.937 0,4.834 c -3.033,-3.03 -6.93,-4.834 -11.117,-4.834 -6.35,0 -10.32,4.258 -10.32,11.401 L -5.918,0 0,0 z" /></g><g
         style="fill:#ffffff"
         transform="matrix(0.1668772,0,0,0.1668772,80.300605,196.39374)"
         id="g3087"><path
           inkscape:connector-curvature="0"
           id="path3089"
           style="fill:#ffffff;fill-opacity:1;fill-rule:nonzero;stroke:none"
           d="m 0,0 c -4.041,0 -8.516,1.228 -11.549,3.103 l 1.517,5.413 c 2.744,-1.875 6.785,-3.103 10.179,-3.103 3.752,0 6.568,1.734 6.568,4.693 0,3.32 -3.9,4.402 -7.796,5.486 -4.693,1.299 -9.815,3.609 -9.815,9.671 0,6.135 5.195,10.032 11.836,10.032 3.826,0 7.649,-0.937 10.682,-2.454 l -1.516,-5.413 c -2.742,1.517 -6.712,2.454 -9.454,2.454 -3.538,0 -5.847,-1.443 -5.847,-4.114 0,-3.176 3.538,-4.258 7.652,-5.342 C 7.291,19.127 12.489,16.817 12.489,10.538 12.489,4.258 7.22,0 0,0" /></g><g
         style="fill:#ffffff"
         transform="matrix(0.1668772,0,0,0.1668772,88.164292,201.40443)"
         id="g3091"><path
           inkscape:connector-curvature="0"
           id="path3093"
           style="fill:#ffffff;fill-opacity:1;fill-rule:nonzero;stroke:none"
           d="m 0,0 c -6.568,0 -10.176,-5.125 -10.176,-12.271 0,-7.074 3.823,-12.342 10.32,-12.342 6.568,0 10.176,5.054 10.176,12.198 C 10.32,-5.342 6.497,0 0,0 m -0.074,-29.953 c -9.382,0 -15.95,6.929 -15.95,17.611 0,10.608 6.785,17.684 16.312,17.684 9.456,0 15.88,-7.002 15.88,-17.684 0,-10.611 -6.929,-17.611 -16.242,-17.611" /></g><g
         style="fill:#ffffff"
         transform="matrix(0.1668772,0,0,0.1668772,95.520406,196.58646)"
         id="g3095"><path
           inkscape:connector-curvature="0"
           id="path3097"
           style="fill:#ffffff;fill-opacity:1;fill-rule:nonzero;stroke:none"
           d="m 0,0 0,20.787 c 0,5.701 -2.166,7.652 -6.856,7.652 -3.464,0 -6.785,-1.804 -8.662,-3.611 l 0,-24.828 -5.919,0 0,33.203 5.919,0.937 0,-4.981 c 3.032,3.033 6.929,4.981 10.755,4.981 6.711,0 10.681,-4.258 10.681,-11.404 L 5.918,0 0,0 z" /></g><g
         style="fill:#212121;fill-opacity:1"
         transform="matrix(0.1668772,0,0,0.1668772,110.57014,199.27844)"
         id="g3099"><path
           inkscape:connector-curvature="0"
           id="path3101"
           style="fill:#212121;fill-opacity:1;fill-rule:nonzero;stroke:none"
           d="m 0,0 1.395,10.821 -10.715,0 0,6.909 c 0,3.132 0.87,5.267 5.362,5.267 l 5.73,0.003 0,9.679 c -0.991,0.131 -4.392,0.426 -8.349,0.426 -8.262,0 -13.918,-5.043 -13.918,-14.304 l 0,-7.98 -9.344,0 0,-10.821 9.344,0 0,-27.767 11.175,0 L -9.32,0 0,0 z" /></g></g></g></svg>