<?xml version="1.0" encoding="UTF-8" standalone="no"?>
<!-- Created with Inkscape (http://www.inkscape.org/) -->

<svg
   xmlns:dc="http://purl.org/dc/elements/1.1/"
   xmlns:cc="http://creativecommons.org/ns#"
   xmlns:rdf="http://www.w3.org/1999/02/22-rdf-syntax-ns#"
   xmlns:svg="http://www.w3.org/2000/svg"
   xmlns="http://www.w3.org/2000/svg"
   xmlns:sodipodi="http://sodipodi.sourceforge.net/DTD/sodipodi-0.dtd"
   xmlns:inkscape="http://www.inkscape.org/namespaces/inkscape"
   width="125"
   height="65"
   id="svg3939"
   version="1.1"
   inkscape:version="0.48.2 r9819"
   sodipodi:docname="small_logo2.svg">
  <defs
     id="defs3941" />
  <sodipodi:namedview
     id="base"
     pagecolor="#ffffff"
     bordercolor="#666666"
     borderopacity="1.0"
     inkscape:pageopacity="0.0"
     inkscape:pageshadow="2"
     inkscape:zoom="2.8284271"
     inkscape:cx="73.610151"
     inkscape:cy="-22.460753"
     inkscape:document-units="px"
     inkscape:current-layer="layer1"
     showgrid="false"
     inkscape:window-width="1122"
     inkscape:window-height="802"
     inkscape:window-x="26"
     inkscape:window-y="26"
     inkscape:window-maximized="0" />
  <metadata
     id="metadata3944">
    <rdf:RDF>
      <cc:Work
         rdf:about="">
        <dc:format>image/svg+xml</dc:format>
        <dc:type
           rdf:resource="http://purl.org/dc/dcmitype/StillImage" />
        <dc:title></dc:title>
      </cc:Work>
    </rdf:RDF>
  </metadata>
  <g
     inkscape:label="Layer 1"
     inkscape:groupmode="layer"
     id="layer1"
     transform="translate(0,-987.36218)">
    <path
       style="fill:#ff0000;stroke:#ff0000;stroke-width:0.09296797px;stroke-linecap:butt;stroke-linejoin:miter;stroke-opacity:1"
       d="m 30.978044,995.0397 -21.7080183,14.9678 21.6615393,-12.2253 29.982171,16.9202 z"
       id="path3073"
       inkscape:connector-curvature="0" />
    <path
       style="fill:#ff0000;stroke:#ff0000;stroke-width:0.09296797px;stroke-linecap:butt;stroke-linejoin:miter;stroke-opacity:1"
       d="m 33.922735,995.2801 1.596891,0.9956 25.440589,-0.7247 z"
       id="path3075"
       inkscape:connector-curvature="0"
       sodipodi:nodetypes="cccc" />
    <path
       style="fill:#ff0000;stroke:#ff0000;stroke-width:0.09296797px;stroke-linecap:butt;stroke-linejoin:miter;stroke-opacity:1"
       d="m 73.034431,992.483 -17.896331,9.7617 17.3792,-10.7378 21.219935,0.4009 z"
       id="path3077"
       inkscape:connector-curvature="0"
       sodipodi:nodetypes="ccccc" />
    <path
       style="fill:#ff0000;stroke:#ff0000;stroke-width:0.09296797px;stroke-linecap:butt;stroke-linejoin:miter;stroke-opacity:1"
       d="m 95.683754,991.8788 -31.888017,21.1966 32.445827,-19.6162 18.593596,15.5257 z"
       id="path3079"
       inkscape:connector-curvature="0" />
    <path
       style="fill:#ff0000;stroke:#ff0000;stroke-width:0.74374378;stroke-linecap:round;stroke-linejoin:miter;stroke-miterlimit:4;stroke-opacity:1;stroke-dasharray:none"
       d="m 3.1864316,1030.9602 118.6271384,0.093"
       id="path3081"
       inkscape:connector-curvature="0" />
    <path
       inkscape:connector-curvature="0"
       id="path3851"
       d="m 3.1864316,1040.8579 118.6271384,0.093"
       style="fill:#ff0000;stroke:#ff0000;stroke-width:0.74374378;stroke-linecap:round;stroke-linejoin:miter;stroke-miterlimit:4;stroke-opacity:1;stroke-dasharray:none" />
    <path
       style="fill:#ffffff;stroke:#ffffff;stroke-width:0.09296797px;stroke-linecap:butt;stroke-linejoin:miter;stroke-opacity:1"
       d="m 30.83859,998.8746 -10.365926,6.2056 10.296205,-5.5084 4.950543,2.2778 z"
       id="path3853"
       inkscape:connector-curvature="0"
       sodipodi:nodetypes="ccccc" />
    <path
       style="fill:#ffffff;stroke:#ffffff;stroke-width:0.09296797px;stroke-linecap:butt;stroke-linejoin:miter;stroke-opacity:1"
       d="m 96.253182,994.9583 -5.368899,3.1144 5.287554,-2.4055 8.971413,6.4496 z"
       id="path3855"
       inkscape:connector-curvature="0"
       sodipodi:nodetypes="ccccc" />
    <g
       style="font-size:15.79248524px;font-style:normal;font-variant:normal;font-weight:bold;font-stretch:normal;line-height:125%;letter-spacing:0px;word-spacing:0px;fill:#ffffff;fill-opacity:1;stroke:#000000;stroke-width:0.09294574;stroke-miterlimit:4;stroke-opacity:1;font-family:Trajan Pro;-inkscape-font-specification:Sans Bold"
       id="text3002"
       transform="translate(0,-10)">
      <path
         d="m 4.8142976,1033.4957 c 0.00164,0.7343 -0.00165,1.3937 -0.00987,1.978 -0.00823,0.5843 -0.031258,1.0462 -0.069091,1.3857 -0.026981,0.2327 -0.071726,0.4268 -0.1342347,0.5824 -0.062514,0.1556 -0.1704273,0.251 -0.3237415,0.2862 -0.071067,0.016 -0.1539768,0.031 -0.2487285,0.043 -0.094755,0.013 -0.201353,0.019 -0.3197937,0.02 -0.093439,3e-4 -0.1592403,0.012 -0.1974037,0.034 -0.038166,0.022 -0.05659,0.053 -0.055273,0.093 0.00263,0.1079 0.1079128,0.1606 0.3158457,0.158 0.1608821,0 0.336571,-0.01 0.5270672,-0.016 0.1904921,-0.01 0.3780253,-0.014 0.5626002,-0.016 0.1924656,-0.01 0.3681545,-0.012 0.5270673,-0.014 0.1589065,0 0.2832706,0 0.3730928,0 0.1233735,0 0.2911664,0 0.5033791,0.012 0.2122046,0.01 0.4392184,0.02 0.681042,0.036 0.2345759,0.01 0.4523775,0.019 0.6534053,0.03 0.2010171,0.011 0.3517018,0.017 0.4520545,0.018 1.4469605,-0.038 2.5129384,-0.4004 3.1979364,-1.0877 0.684981,-0.6873 1.024514,-1.4723 1.018603,-2.355 -0.03883,-0.9228 -0.355995,-1.6671 -0.951486,-2.2326 -0.595509,-0.5656 -1.236411,-0.9584 -1.9227095,-1.1785 0.4471112,-0.3382 0.8241515,-0.7238 1.1311215,-1.1568 0.306954,-0.433 0.466851,-0.9686 0.479691,-1.6069 0.03848,-0.4648 -0.16484,-0.9643 -0.609977,-1.4983 -0.4451525,-0.5339 -1.363078,-0.8241 -2.7537788,-0.8705 -0.2668222,0 -0.5583176,0.01 -0.8744869,0.024 -0.3161784,0.014 -0.6668987,0.022 -1.0521621,0.024 -0.1753638,0 -0.4681795,-0.01 -0.8784479,-0.024 -0.4102736,-0.014 -0.8333759,-0.022 -1.269308,-0.024 -0.1181163,-10e-4 -0.2056329,0.01 -0.2625501,0.03 -0.05692,0.021 -0.085214,0.058 -0.084884,0.1125 3.278e-4,0.054 0.023358,0.092 0.069091,0.1125 0.045731,0.021 0.11219,0.031 0.1993777,0.03 0.1144927,10e-5 0.2289867,0 0.3434821,0.012 0.1144923,0.01 0.2052978,0.02 0.2724169,0.035 0.2543191,0.052 0.428692,0.1491 0.5231192,0.2902 0.094422,0.1412 0.1464053,0.3445 0.1559489,0.61 0.015132,0.2106 0.024344,0.5317 0.027636,0.9633 0.00329,0.4317 0.0046,1.2266 0.00395,2.3846 z m 1.8950738,-6.4117 c -9.913e-4,-0.085 0.00888,-0.1477 0.029611,-0.1875 0.020723,-0.04 0.058229,-0.067 0.1125199,-0.081 0.076983,-0.015 0.1559438,-0.024 0.2368843,-0.028 0.080931,0 0.1756842,0 0.284261,0 0.6764304,0.036 1.1752028,0.3116 1.4963187,0.8271 0.3211027,0.5156 0.4803413,1.0558 0.4777166,1.6207 -0.00132,0.3876 -0.057912,0.7218 -0.1697671,1.0028 -0.1118689,0.281 -0.2711076,0.5047 -0.4777165,0.6712 -0.1322667,0.1161 -0.2901893,0.1957 -0.4737684,0.2388 -0.1835912,0.043 -0.4046829,0.063 -0.6632759,0.061 -0.1809586,0 -0.3323012,0 -0.4540283,-0.012 -0.1217369,-0.01 -0.2178065,-0.02 -0.2882089,-0.036 -0.032247,-0.01 -0.058568,-0.021 -0.078961,-0.045 -0.020403,-0.024 -0.030931,-0.067 -0.031585,-0.1283 z m 3.6164326,8.3068 c -0.03521,0.8027 -0.264858,1.3449 -0.6889385,1.6266 -0.4240957,0.2816 -0.8314045,0.4132 -1.2219277,0.3948 -0.1803014,0 -0.3645445,-0.01 -0.5527298,-0.03 -0.1881966,-0.023 -0.388232,-0.076 -0.6001067,-0.1599 -0.2441271,-0.088 -0.3994178,-0.2359 -0.4658726,-0.4442 -0.066464,-0.2082 -0.095416,-0.5655 -0.086857,-1.0719 l 0,-3.7428 c -4.5e-6,-0.076 0.03158,-0.1131 0.094754,-0.1105 0.1141603,-3e-4 0.221416,3e-4 0.3217676,0 0.1003418,0 0.2194418,0.01 0.3573005,0.014 0.3033377,0.015 0.5573299,0.052 0.7619776,0.1125 0.2046356,0.06 0.3875627,0.1491 0.5487818,0.2665 0.5889134,0.4359 0.9942482,0.9419 1.2160058,1.518 0.221742,0.5761 0.327024,1.1177 0.315846,1.6247 z"
         style="fill:#ffffff;stroke:#000000;-inkscape-font-specification:Trajan Pro Bold"
         id="path4533"
         inkscape:connector-curvature="0" />
      <path
         d="m 15.664233,1034.1748 c 0.0013,0.6224 -0.0013,1.1818 -0.0079,1.6779 -0.0066,0.4961 -0.02501,0.8896 -0.05527,1.1805 -0.02007,0.1984 -0.05889,0.3582 -0.116469,0.4797 -0.05758,0.1214 -0.155621,0.1983 -0.294131,0.2309 -0.123707,0.032 -0.286894,0.047 -0.48956,0.047 -0.08521,0 -0.143777,0.018 -0.17569,0.047 -0.03191,0.03 -0.04705,0.061 -0.0454,0.095 0.0026,0.095 0.09212,0.1422 0.268469,0.1422 0.296106,0 0.615901,-0.01 0.959387,-0.024 0.343481,-0.014 0.59221,-0.022 0.746188,-0.024 0.129625,0 0.415203,0.01 0.856733,0.024 0.441523,0.014 0.877127,0.022 1.306815,0.024 0.08783,0 0.156919,-0.012 0.207261,-0.036 0.05033,-0.024 0.07599,-0.059 0.07699,-0.1066 -3.35e-4,-0.034 -0.01547,-0.065 -0.0454,-0.095 -0.02995,-0.03 -0.07272,-0.045 -0.128312,-0.047 -0.09147,0 -0.200699,0 -0.32769,-0.012 -0.127002,-0.01 -0.244127,-0.02 -0.351378,-0.035 -0.205963,-0.033 -0.342829,-0.1095 -0.4106,-0.2309 -0.06778,-0.1214 -0.109892,-0.2813 -0.126338,-0.4797 -0.03093,-0.2899 -0.05199,-0.6814 -0.06317,-1.1746 -0.01119,-0.4932 -0.01646,-1.0544 -0.01579,-1.6838 l 0,-0.1895 c 6.53e-4,-0.039 0.01118,-0.068 0.03158,-0.085 0.02039,-0.017 0.04672,-0.026 0.07896,-0.026 l 1.247591,0.032 c 0.04704,0 0.09113,0 0.13226,0.018 0.04112,0.013 0.08126,0.039 0.120416,0.077 0.09606,0.1208 0.267147,0.361 0.513249,0.7206 0.24609,0.3596 0.511927,0.73 0.797511,1.1113 0.379994,0.5196 0.717554,0.9413 1.01268,1.2654 0.29511,0.3241 0.589241,0.5603 0.882394,0.7087 0.173706,0.094 0.375057,0.1625 0.604054,0.2053 0.228979,0.043 0.53298,0.064 0.912005,0.063 l 1.326551,0 c 0.08718,9e-4 0.153634,-0.01 0.199377,-0.03 0.04572,-0.021 0.06875,-0.058 0.06909,-0.1125 -3.41e-4,-0.034 -0.01547,-0.065 -0.0454,-0.095 -0.02995,-0.03 -0.07272,-0.045 -0.128312,-0.047 -0.05331,7e-4 -0.104636,-7e-4 -0.153975,0 -0.04936,0 -0.108583,-0.013 -0.177663,-0.028 -0.110228,-0.01 -0.28855,-0.066 -0.534964,-0.1698 -0.246436,-0.1039 -0.562939,-0.3421 -0.94951,-0.7146 -0.416203,-0.4201 -0.874836,-0.9301 -1.375903,-1.5298 -0.501085,-0.5998 -1.05842,-1.2795 -1.672008,-2.0392 0.674455,-0.5383 1.165331,-1.0449 1.47263,-1.52 0.307283,-0.4751 0.458625,-0.9581 0.454029,-1.449 -0.01613,-0.454 -0.129966,-0.8409 -0.341509,-1.1607 -0.211559,-0.3198 -0.424097,-0.5488 -0.637613,-0.687 -0.379352,-0.2378 -0.801137,-0.3938 -1.265357,-0.4678 -0.464234,-0.074 -0.921551,-0.1076 -1.371954,-0.1007 -0.247082,0 -0.601747,0.01 -1.063995,0.016 -0.462257,0.01 -0.82877,0.014 -1.099539,0.016 -0.157927,0 -0.4185,-0.01 -0.781721,-0.016 -0.363225,-0.01 -0.734344,-0.014 -1.113358,-0.016 -0.102982,-6e-4 -0.181286,0.01 -0.234914,0.028 -0.05363,0.019 -0.08061,0.052 -0.08094,0.099 9.86e-4,0.047 0.0227,0.083 0.06514,0.1066 0.04244,0.024 0.09969,0.035 0.171741,0.035 0.105939,0 0.209904,0 0.311898,0.012 0.10199,0.01 0.182267,0.02 0.240832,0.036 0.216484,0.057 0.367827,0.1365 0.454028,0.2388 0.0862,0.1024 0.13489,0.2649 0.146079,0.4876 0.0076,0.1777 0.01217,0.4501 0.01382,0.8173 0.0016,0.3671 0.0023,1.0423 0.002,2.0253 z m 1.768736,-5.322 c -6.62e-4,-0.054 0.0085,-0.096 0.02764,-0.1244 0.01908,-0.029 0.05198,-0.05 0.0987,-0.065 0.07468,-0.016 0.185883,-0.028 0.333612,-0.036 0.147719,-0.01 0.310248,-0.012 0.487586,-0.012 0.447443,-0.019 0.902787,0.1415 1.366033,0.4816 0.463233,0.3402 0.713277,0.9746 0.750133,1.903 -0.01086,0.5478 -0.107592,0.9801 -0.290183,1.297 -0.182605,0.3168 -0.38593,0.5478 -0.609977,0.6928 -0.109894,0.085 -0.2336,0.1438 -0.371119,0.1757 -0.13753,0.032 -0.340197,0.047 -0.608002,0.045 -0.17734,7e-4 -0.359609,-0.01 -0.546808,-0.028 -0.187209,-0.019 -0.357634,-0.052 -0.511275,-0.099 -0.04672,-0.022 -0.07962,-0.049 -0.0987,-0.083 -0.01909,-0.034 -0.0283,-0.085 -0.02764,-0.154 z"
         style="fill:#ffffff;stroke:#000000;-inkscape-font-specification:Trajan Pro Bold"
         id="path4535"
         inkscape:connector-curvature="0" />
      <path
         d="m 27.990988,1035.6908 c 9.84e-4,0.1171 -9.91e-4,0.2974 -0.0059,0.5409 -0.0049,0.2435 -0.01876,0.5106 -0.04145,0.8015 -0.01382,0.1984 -0.0533,0.3582 -0.118442,0.4797 -0.06515,0.1214 -0.167796,0.1983 -0.307949,0.2309 -0.06383,0.016 -0.137528,0.028 -0.221092,0.035 -0.08357,0.01 -0.17306,0.012 -0.268469,0.012 -0.07831,0 -0.134895,0.018 -0.169767,0.047 -0.03488,0.03 -0.05199,0.061 -0.05132,0.095 6.55e-4,0.054 0.02698,0.092 0.07896,0.1125 0.05198,0.021 0.125678,0.031 0.221092,0.03 0.281302,0 0.603072,-0.01 0.965313,-0.024 0.362233,-0.014 0.640573,-0.022 0.835021,-0.024 0.202334,0 0.504362,0.01 0.906084,0.024 0.401711,0.014 0.82613,0.022 1.273256,0.024 0.0954,0 0.169088,-0.012 0.221076,-0.036 0.05197,-0.024 0.07829,-0.059 0.07896,-0.1066 -7e-6,-0.034 -0.01975,-0.065 -0.05922,-0.095 -0.03949,-0.03 -0.09871,-0.045 -0.177663,-0.047 -0.09904,0 -0.212874,0 -0.341509,-0.012 -0.128648,-0.01 -0.246431,-0.02 -0.353352,-0.035 -0.201357,-0.033 -0.343488,-0.1095 -0.426391,-0.2309 -0.08292,-0.1214 -0.130292,-0.2813 -0.142131,-0.4797 -0.01514,-0.2909 -0.02435,-0.558 -0.02764,-0.8015 -0.0033,-0.2435 -0.0046,-0.4238 -0.0039,-0.5409 l 0,-1.0739 c -0.0056,-0.2187 -0.0023,-0.4365 0.0099,-0.6534 0.01217,-0.2168 0.06678,-0.4464 0.163845,-0.6889 0.104398,-0.2221 0.341282,-0.6377 0.710652,-1.247 0.369357,-0.6093 0.750126,-1.2168 1.142309,-1.8226 0.392167,-0.6057 0.674673,-1.0144 0.847519,-1.2259 0.14278,-0.1763 0.263854,-0.3093 0.363222,-0.3988 0.09935,-0.089 0.220425,-0.1671 0.363223,-0.2329 0.10593,-0.048 0.213844,-0.086 0.323741,-0.1145 0.109879,-0.028 0.202,-0.043 0.276365,-0.043 0.08027,-7e-4 0.144753,-0.015 0.193456,-0.043 0.04868,-0.028 0.07369,-0.066 0.07501,-0.1145 -6.68e-4,-0.039 -0.02304,-0.068 -0.06712,-0.085 -0.0441,-0.017 -0.10595,-0.026 -0.185559,-0.026 -0.160552,0 -0.404009,0.01 -0.730372,0.016 -0.326381,0.01 -0.577741,0.014 -0.75408,0.016 -0.207612,0 -0.428046,-0.01 -0.661304,-0.016 -0.233273,-0.01 -0.465552,-0.014 -0.696836,-0.016 -0.07898,-6e-4 -0.138204,0.01 -0.17768,0.028 -0.03949,0.019 -0.05923,0.052 -0.05922,0.099 0.0026,0.053 0.02895,0.089 0.07896,0.1085 0.05,0.019 0.107907,0.036 0.173715,0.049 0.116132,0.025 0.195752,0.065 0.238858,0.1204 0.04309,0.055 0.06349,0.1148 0.0612,0.1796 0.0026,0.1738 -0.06581,0.4106 -0.2053,0.7107 -0.08696,0.1679 -0.283293,0.5165 -0.588994,1.0458 -0.305714,0.5293 -0.609666,1.0534 -0.911858,1.5722 -0.302203,0.5188 -0.491515,0.8463 -0.567937,0.9826 -0.09837,-0.1602 -0.313998,-0.5258 -0.646899,-1.0967 -0.332909,-0.5708 -0.666691,-1.1434 -1.001348,-1.7178 -0.334662,-0.5744 -0.553804,-0.947 -0.657426,-1.1178 -0.113181,-0.1921 -0.171086,-0.3447 -0.173715,-0.4579 9.84e-4,-0.055 0.01875,-0.099 0.0533,-0.1323 0.03454,-0.033 0.07995,-0.058 0.136208,-0.073 0.109885,-0.028 0.190162,-0.051 0.240832,-0.069 0.05066,-0.018 0.07567,-0.053 0.07501,-0.1046 -6.61e-4,-0.047 -0.01909,-0.08 -0.05527,-0.099 -0.03619,-0.019 -0.0862,-0.028 -0.150027,-0.028 -0.323413,0 -0.628071,0.01 -0.913974,0.016 -0.285908,0.01 -0.507658,0.014 -0.66525,0.016 -0.257943,0 -0.575105,-0.01 -0.951489,-0.016 -0.376383,-0.01 -0.638273,-0.014 -0.785667,-0.016 -0.08719,-6e-4 -0.153645,0.01 -0.199377,0.028 -0.04573,0.019 -0.06876,0.052 -0.06909,0.099 0.0016,0.047 0.02204,0.083 0.06119,0.1066 0.03915,0.024 0.08719,0.035 0.144105,0.035 0.08949,0 0.186875,0.018 0.292157,0.051 0.105282,0.033 0.202667,0.074 0.292157,0.1224 0.133247,0.071 0.273404,0.1856 0.42047,0.3435 0.147065,0.1579 0.306962,0.3593 0.47969,0.604 0.182975,0.2677 0.462751,0.6922 0.839331,1.2734 0.376575,0.5812 0.731219,1.1343 1.063932,1.6593 0.332706,0.5251 0.524748,0.8372 0.576126,0.9364 0.09607,0.1859 0.172395,0.3787 0.228987,0.5784 0.05659,0.1997 0.08554,0.4755 0.08686,0.8272 z"
         style="fill:#ffffff;stroke:#000000;-inkscape-font-specification:Trajan Pro Bold"
         id="path4537"
         inkscape:connector-curvature="0" />
      <path
         d="m 39.67493,1034.6959 c 0.03158,-10e-4 0.05921,0 0.08291,0.018 0.02368,0.013 0.04342,0.038 0.05922,0.077 l 1.073875,2.7004 c 0.02829,0.081 0.02697,0.1484 -0.0039,0.2034 -0.03093,0.055 -0.07173,0.087 -0.12239,0.097 -0.06943,0.01 -0.116147,0.024 -0.140157,0.047 -0.02402,0.024 -0.03521,0.055 -0.03356,0.095 0.0013,0.045 0.03816,0.073 0.110546,0.085 0.07237,0.012 0.172391,0.02 0.300053,0.026 0.591873,0.015 1.121572,0.024 1.589098,0.028 0.467508,0 0.82744,0 1.079798,0 0.252994,9e-4 0.418155,-0.01 0.495482,-0.03 0.07731,-0.021 0.11218,-0.058 0.104624,-0.1125 -1e-5,-0.095 -0.06318,-0.1421 -0.189507,-0.1421 -0.07798,0 -0.158921,0 -0.242807,-0.012 -0.08391,-0.01 -0.176686,-0.02 -0.278338,-0.035 -0.126349,0 -0.288219,-0.098 -0.485613,-0.2803 -0.197413,-0.1823 -0.430349,-0.5679 -0.698809,-1.1568 -0.315951,-0.7297 -0.72811,-1.6917 -1.236477,-2.8859 -0.508382,-1.1941 -0.98605,-2.3164 -1.433003,-3.3667 -0.446967,-1.0502 -0.736297,-1.7244 -0.867991,-2.0225 -0.06646,-0.1491 -0.127001,-0.2576 -0.181611,-0.3258 -0.05462,-0.068 -0.130949,-0.1016 -0.228988,-0.1006 -0.06943,0 -0.135884,0.041 -0.199378,0.1263 -0.0635,0.086 -0.13391,0.2224 -0.211221,0.4106 l -3.632225,8.4489 c -0.13292,0.3405 -0.28163,0.6109 -0.446133,0.8113 -0.164503,0.2004 -0.400071,0.3247 -0.706704,0.3731 -0.06448,7e-4 -0.132918,0 -0.205299,0.01 -0.07238,0 -0.140814,0.01 -0.2053,0.01 -0.05494,0 -0.09508,0.015 -0.120417,0.041 -0.02533,0.027 -0.03783,0.06 -0.03751,0.1007 -3.28e-4,0.054 0.02007,0.092 0.0612,0.1125 0.04113,0.021 0.104954,0.031 0.191482,0.03 0.376054,0 0.717562,-0.01 1.024525,-0.024 0.306962,-0.014 0.502392,-0.022 0.58629,-0.024 0.229317,0 0.485284,0.01 0.767902,0.024 0.282614,0.014 0.542529,0.022 0.779746,0.024 0.07139,9e-4 0.126001,-0.01 0.163838,-0.03 0.03783,-0.021 0.05692,-0.058 0.05725,-0.1125 0.0023,-0.04 -0.0102,-0.074 -0.03751,-0.1007 -0.02731,-0.027 -0.08324,-0.04 -0.167793,-0.041 l -0.205299,0 c -0.20958,-10e-4 -0.355,-0.035 -0.436263,-0.1007 -0.08127,-0.066 -0.120088,-0.1589 -0.116467,-0.2783 -3.31e-4,-0.083 0.01612,-0.1978 0.04935,-0.3455 0.03323,-0.1477 0.08521,-0.3063 0.155948,-0.4757 l 0.742238,-1.8003 c 0.01414,-0.039 0.02928,-0.064 0.0454,-0.077 0.01612,-0.013 0.0431,-0.019 0.08094,-0.018 z m -2.984741,-0.7422 c -0.02468,0 -0.04244,-0.01 -0.0533,-0.024 -0.01086,-0.016 -0.0089,-0.04 0.0059,-0.071 l 1.342344,-3.3953 c 0.0072,-0.026 0.01645,-0.053 0.02765,-0.081 0.01118,-0.028 0.02829,-0.043 0.05133,-0.045 0.01546,0 0.02796,0.018 0.03751,0.045 0.0095,0.028 0.01809,0.055 0.02566,0.081 l 1.310747,3.4111 c 0.01842,0.05 -0.0026,0.076 -0.06317,0.079 z"
         style="fill:#ffffff;stroke:#000000;-inkscape-font-specification:Trajan Pro Bold"
         id="path4539"
         inkscape:connector-curvature="0" />
      <path
         d="m 46.510153,1030.7636 0.04738,0 c 0.158248,0.151 0.544501,0.5518 1.158758,1.2022 0.614249,0.6505 1.312399,1.3552 2.094452,2.1142 0.750455,0.7258 1.49993,1.4457 2.248426,2.1596 0.748479,0.7139 1.351875,1.2838 1.81019,1.7095 0.07105,0.074 0.153964,0.1392 0.248729,0.1954 0.09474,0.056 0.201341,0.086 0.319793,0.089 0.05757,10e-4 0.108232,-0.033 0.152001,-0.1007 0.04375,-0.068 0.06678,-0.1767 0.06909,-0.3257 l 0.157923,-8.4647 c 0.0043,-0.3708 0.04309,-0.6359 0.116468,-0.7955 0.07336,-0.1596 0.202985,-0.2629 0.388885,-0.3099 0.08487,-0.023 0.159885,-0.037 0.22504,-0.042 0.06513,0 0.132248,-0.01 0.201352,-0.01 0.07895,-10e-4 0.13817,-0.015 0.177663,-0.042 0.03947,-0.027 0.05921,-0.06 0.05922,-0.1006 -0.0013,-0.054 -0.03028,-0.088 -0.08686,-0.1047 -0.0566,-0.016 -0.132931,-0.023 -0.228988,-0.022 -0.343808,0 -0.635298,0.01 -0.874471,0.016 -0.239195,0.01 -0.400407,0.014 -0.483635,0.016 -0.159579,0 -0.40107,-0.01 -0.724474,-0.016 -0.323423,-0.01 -0.671512,-0.014 -1.044266,-0.016 -0.104316,0 -0.187891,0.01 -0.250725,0.022 -0.06285,0.016 -0.0951,0.051 -0.09673,0.1047 -0.0017,0.04 0.01348,0.074 0.0454,0.1006 0.03191,0.027 0.09047,0.041 0.175689,0.042 0.100338,0 0.219438,0 0.357301,0.01 0.137844,0.01 0.260892,0.031 0.369144,0.069 0.163835,0.053 0.282277,0.1639 0.355326,0.3317 0.07303,0.1678 0.112511,0.452 0.118443,0.8528 l 0.14213,5.9694 -0.06317,0 c -0.08414,-0.08 -0.30367,-0.2993 -0.658597,-0.6591 -0.354945,-0.3598 -0.751117,-0.7609 -1.188515,-1.2032 -0.437415,-0.4422 -0.821889,-0.8269 -1.153421,-1.154 -1.051839,-1.0311 -1.996084,-1.9694 -2.832741,-2.815 -0.836665,-0.8455 -1.318987,-1.3337 -1.446968,-1.4647 -0.117787,-0.122 -0.225701,-0.2253 -0.323742,-0.3099 -0.09805,-0.085 -0.190167,-0.1286 -0.276365,-0.1323 -0.07205,0 -0.129301,0.045 -0.171741,0.1283 -0.04244,0.083 -0.06416,0.1932 -0.06514,0.3297 l -0.126338,7.9593 c -0.002,0.5731 -0.02961,0.9785 -0.08291,1.216 -0.0533,0.2376 -0.167794,0.3744 -0.343482,0.4106 -0.09739,0.023 -0.202668,0.04 -0.315845,0.049 -0.113179,0.01 -0.218461,0.014 -0.315846,0.014 -0.06449,0 -0.117127,0.015 -0.157923,0.041 -0.0408,0.027 -0.06185,0.06 -0.06317,0.1007 0.0013,0.061 0.03027,0.1007 0.08686,0.1185 0.05659,0.018 0.132918,0.026 0.228989,0.024 0.365526,0 0.688611,-0.01 0.969256,-0.024 0.280641,-0.014 0.457647,-0.022 0.531017,-0.024 0.129297,0 0.348415,0.01 0.657356,0.024 0.308934,0.014 0.689923,0.022 1.142969,0.024 0.09606,9e-4 0.172386,-0.01 0.228978,-0.03 0.05658,-0.021 0.08554,-0.058 0.08686,-0.1125 -4e-6,-0.04 -0.01975,-0.074 -0.05922,-0.1007 -0.03948,-0.027 -0.09871,-0.04 -0.177663,-0.041 -0.112195,0 -0.231295,0 -0.3573,-0.018 -0.126013,-0.013 -0.249062,-0.039 -0.369145,-0.077 -0.135225,-0.037 -0.243797,-0.1605 -0.325716,-0.3711 -0.08193,-0.2105 -0.131276,-0.5711 -0.148052,-1.0818 z"
         style="fill:#ffffff;stroke:#000000;-inkscape-font-specification:Trajan Pro Bold"
         id="path4541"
         inkscape:connector-curvature="0" />
      <path
         d="m 66.149325,1032.2165 c -3.34e-4,-0.054 0.0082,-0.092 0.02566,-0.1125 0.01743,-0.021 0.04573,-0.031 0.08488,-0.03 0.106056,-3e-4 0.31857,3e-4 0.637539,0 0.31896,0 0.644943,0.01 0.977952,0.012 0.332997,0.01 0.573585,0.018 0.721766,0.033 0.242799,0.038 0.428359,0.1125 0.556678,0.225 0.128305,0.1125 0.211214,0.227 0.248729,0.3435 0.03158,0.096 0.05527,0.1879 0.07107,0.2744 0.01578,0.087 0.02368,0.1582 0.02369,0.2151 -6.65e-4,0.058 0.0085,0.1083 0.02764,0.152 0.01908,0.044 0.05197,0.067 0.0987,0.069 0.07566,0 0.121724,-0.036 0.138182,-0.097 0.01644,-0.061 0.02302,-0.1286 0.01974,-0.2033 6.49e-4,-0.077 0.0072,-0.2431 0.01974,-0.4994 0.01249,-0.2563 0.02697,-0.4741 0.04343,-0.6535 0.02598,-0.249 0.05296,-0.4615 0.08093,-0.6376 0.02796,-0.176 0.04309,-0.2898 0.0454,-0.3415 -9e-6,-0.095 -0.03159,-0.1421 -0.09475,-0.1421 -0.04508,7e-4 -0.08127,0.015 -0.108572,0.043 -0.02732,0.028 -0.05956,0.066 -0.09673,0.1145 -0.07864,0.1007 -0.174053,0.1718 -0.286236,0.2132 -0.112199,0.042 -0.243143,0.065 -0.392833,0.071 -0.109566,0.01 -0.222086,0.012 -0.33756,0.014 -0.115488,0 -0.239852,0 -0.373092,0 l -2.021412,0.016 c -0.04607,0 -0.07633,-0.012 -0.09081,-0.036 -0.01448,-0.024 -0.02106,-0.059 -0.01974,-0.1066 l 0,-3.948 c -5e-6,-0.085 0.01184,-0.1438 0.03553,-0.1757 0.02368,-0.032 0.05922,-0.047 0.106598,-0.045 l 2.432012,0.047 c 0.299058,0.013 0.533968,0.066 0.70473,0.1599 0.170746,0.094 0.283266,0.1984 0.33756,0.3139 0.0454,0.1139 0.07303,0.2257 0.08291,0.3356 0.0099,0.1099 0.01381,0.1981 0.01185,0.2645 0.0066,0.087 0.02105,0.1504 0.04343,0.1915 0.02236,0.041 0.06053,0.062 0.114494,0.061 0.05395,0 0.09211,-0.022 0.114494,-0.063 0.02236,-0.041 0.03684,-0.093 0.04343,-0.1579 0.01611,-0.1263 0.03125,-0.3435 0.0454,-0.6514 0.01414,-0.308 0.02532,-0.5172 0.03356,-0.6278 0.02598,-0.2023 0.05296,-0.3582 0.08093,-0.4678 0.02796,-0.1096 0.04309,-0.1905 0.0454,-0.2428 -6.67e-4,-0.041 -0.0112,-0.074 -0.03158,-0.1007 -0.02041,-0.027 -0.04673,-0.041 -0.07896,-0.042 -0.03916,0 -0.0793,0.014 -0.120416,0.036 -0.04113,0.022 -0.08522,0.041 -0.13226,0.059 -0.07733,0.022 -0.167473,0.037 -0.270443,0.043 -0.102987,0.01 -0.228667,0.013 -0.377041,0.02 -0.154713,0.01 -0.524369,0.01 -1.108969,0.011 -0.584613,0 -1.18238,0 -1.793302,0 -0.610931,5e-4 -1.033228,7e-4 -1.266891,6e-4 -0.112524,-4e-4 -0.254654,0 -0.426392,-0.01 -0.171744,-0.01 -0.361251,-0.014 -0.568522,-0.022 -0.207276,-7e-4 -0.420472,0 -0.639588,-0.01 -0.219119,0 -0.432315,-0.01 -0.639587,-0.01 -0.118772,0 -0.20892,0.01 -0.270443,0.032 -0.06152,0.022 -0.09245,0.064 -0.09278,0.1263 0.0013,0.047 0.02632,0.08 0.07501,0.099 0.04869,0.019 0.113177,0.028 0.193455,0.028 0.114493,10e-5 0.228987,0 0.343483,0.012 0.114492,0.01 0.205297,0.02 0.272416,0.035 0.25432,0.052 0.428693,0.1491 0.52312,0.2902 0.09442,0.1412 0.146405,0.3445 0.155949,0.61 0.01513,0.2106 0.02434,0.5317 0.02764,0.9633 0.0033,0.4317 0.0046,1.2266 0.0039,2.3846 l 0,2.7795 c 0.0016,0.762 -0.0016,1.4292 -0.0099,2.0017 -0.0082,0.5724 -0.03126,1.0265 -0.06909,1.362 -0.02698,0.2327 -0.07173,0.4268 -0.134235,0.5824 -0.06251,0.1556 -0.170427,0.251 -0.323741,0.2862 -0.07107,0.016 -0.153977,0.031 -0.248729,0.043 -0.09475,0.013 -0.201353,0.019 -0.319794,0.02 -0.08587,3e-4 -0.147067,0.012 -0.183585,0.034 -0.03652,0.022 -0.05429,0.053 -0.0533,0.093 -10e-7,0.062 0.02764,0.104 0.08291,0.1264 0.05527,0.022 0.138181,0.033 0.248728,0.032 0.320453,0 0.678413,-0.01 1.073882,-0.024 0.395463,-0.014 0.706046,-0.022 0.931748,-0.024 0.217469,0 0.544501,0.01 0.981098,0.024 0.436586,0.014 0.909698,0.022 1.419335,0.024 0.234232,0 0.350037,-0.05 0.347414,-0.158 0.0016,-0.04 -0.01744,-0.071 -0.05725,-0.093 -0.03982,-0.022 -0.110223,-0.033 -0.211222,-0.034 -0.115816,-7e-4 -0.247418,-0.01 -0.394807,-0.02 -0.1474,-0.013 -0.279002,-0.027 -0.394807,-0.043 -0.22998,-0.035 -0.385929,-0.1306 -0.467846,-0.2862 -0.08193,-0.1556 -0.131278,-0.3497 -0.148053,-0.5824 -0.03784,-0.3355 -0.06087,-0.7896 -0.06909,-1.362 -0.0082,-0.5725 -0.01152,-1.2397 -0.0099,-2.0017 z"
         style="fill:#ffffff;stroke:#000000;-inkscape-font-specification:Trajan Pro Bold"
         id="path4543"
         inkscape:connector-curvature="0" />
      <path
         d="m 73.652261,1034.1748 c 0.0013,0.6224 -0.0013,1.1818 -0.0079,1.6779 -0.0066,0.4961 -0.02501,0.8896 -0.05527,1.1805 -0.02007,0.1984 -0.05889,0.3582 -0.116468,0.4797 -0.05758,0.1214 -0.155622,0.1983 -0.294131,0.2309 -0.123708,0.032 -0.286894,0.047 -0.489561,0.047 -0.08521,0 -0.143777,0.018 -0.175689,0.047 -0.03192,0.03 -0.04705,0.061 -0.0454,0.095 0.0026,0.095 0.09212,0.1422 0.268469,0.1422 0.296106,0 0.615902,-0.01 0.959387,-0.024 0.343481,-0.014 0.59221,-0.022 0.746188,-0.024 0.129626,0 0.415203,0.01 0.856734,0.024 0.441522,0.014 0.877127,0.022 1.306815,0.024 0.08783,0 0.156919,-0.012 0.20726,-0.036 0.05033,-0.024 0.07599,-0.059 0.07699,-0.1066 -3.34e-4,-0.034 -0.01547,-0.065 -0.0454,-0.095 -0.02994,-0.03 -0.07272,-0.045 -0.128313,-0.047 -0.09147,0 -0.200699,0 -0.32769,-0.012 -0.127001,-0.01 -0.244127,-0.02 -0.351378,-0.035 -0.205962,-0.033 -0.342828,-0.1095 -0.410599,-0.2309 -0.06778,-0.1214 -0.109892,-0.2813 -0.126338,-0.4797 -0.03093,-0.2899 -0.05199,-0.6814 -0.06317,-1.1746 -0.01119,-0.4932 -0.01645,-1.0544 -0.01579,-1.6838 l 0,-0.1895 c 6.54e-4,-0.039 0.01118,-0.068 0.03158,-0.085 0.02039,-0.017 0.04671,-0.026 0.07896,-0.026 l 1.24759,0.032 c 0.04704,0 0.09113,0 0.132261,0.018 0.04112,0.013 0.08126,0.039 0.120416,0.077 0.09606,0.1208 0.267147,0.361 0.513249,0.7206 0.24609,0.3596 0.511926,0.73 0.79751,1.1113 0.379994,0.5196 0.717554,0.9413 1.01268,1.2654 0.29511,0.3241 0.589241,0.5603 0.882394,0.7087 0.173706,0.094 0.375058,0.1625 0.604055,0.2053 0.228978,0.043 0.532979,0.064 0.912004,0.063 l 1.326552,0 c 0.08718,9e-4 0.153634,-0.01 0.199377,-0.03 0.04572,-0.021 0.06875,-0.058 0.06909,-0.1125 -3.41e-4,-0.034 -0.01547,-0.065 -0.0454,-0.095 -0.02995,-0.03 -0.07272,-0.045 -0.128312,-0.047 -0.05331,7e-4 -0.104636,-7e-4 -0.153975,0 -0.04936,0 -0.108584,-0.013 -0.177663,-0.028 -0.110229,-0.01 -0.28855,-0.066 -0.534964,-0.1698 -0.246436,-0.1039 -0.562939,-0.3421 -0.949511,-0.7146 -0.416202,-0.4201 -0.874836,-0.9301 -1.375903,-1.5298 -0.501084,-0.5998 -1.058419,-1.2795 -1.672007,-2.0392 0.674454,-0.5383 1.16533,-1.0449 1.47263,-1.52 0.307282,-0.4751 0.458625,-0.9581 0.454028,-1.449 -0.01613,-0.454 -0.129966,-0.8409 -0.341508,-1.1607 -0.211559,-0.3198 -0.424097,-0.5488 -0.637613,-0.687 -0.379352,-0.2378 -0.801137,-0.3938 -1.265358,-0.4678 -0.464233,-0.074 -0.92155,-0.1076 -1.371953,-0.1007 -0.247082,0 -0.601747,0.01 -1.063996,0.016 -0.462257,0.01 -0.828769,0.014 -1.099539,0.016 -0.157926,0 -0.418499,-0.01 -0.78172,-0.016 -0.363226,-0.01 -0.734345,-0.014 -1.113359,-0.016 -0.102981,-6e-4 -0.181286,0.01 -0.234913,0.028 -0.05363,0.019 -0.08061,0.052 -0.08094,0.099 9.87e-4,0.047 0.0227,0.083 0.06514,0.1066 0.04244,0.024 0.09969,0.035 0.171741,0.035 0.105938,0 0.209904,0 0.311897,0.012 0.101991,0.01 0.182268,0.02 0.240833,0.036 0.216484,0.057 0.367826,0.1365 0.454028,0.2388 0.0862,0.1024 0.13489,0.2649 0.146078,0.4876 0.0076,0.1777 0.01217,0.4501 0.01382,0.8173 0.0016,0.3671 0.0023,1.0423 0.002,2.0253 z m 1.768735,-5.322 c -6.62e-4,-0.054 0.0085,-0.096 0.02764,-0.1244 0.01908,-0.029 0.05198,-0.05 0.0987,-0.065 0.07468,-0.016 0.185884,-0.028 0.333612,-0.036 0.147719,-0.01 0.310248,-0.012 0.487587,-0.012 0.447443,-0.019 0.902786,0.1415 1.366032,0.4816 0.463233,0.3402 0.713278,0.9746 0.750134,1.903 -0.01087,0.5478 -0.107592,0.9801 -0.290184,1.297 -0.182604,0.3168 -0.38593,0.5478 -0.609976,0.6928 -0.109895,0.085 -0.233601,0.1438 -0.371119,0.1757 -0.13753,0.032 -0.340197,0.047 -0.608003,0.045 -0.177339,7e-4 -0.359608,-0.01 -0.546808,-0.028 -0.187208,-0.019 -0.357633,-0.052 -0.511275,-0.099 -0.04672,-0.022 -0.07962,-0.049 -0.0987,-0.083 -0.01909,-0.034 -0.0283,-0.085 -0.02764,-0.154 z"
         style="fill:#ffffff;stroke:#000000;-inkscape-font-specification:Trajan Pro Bold"
         id="path4545"
         inkscape:connector-curvature="0" />
      <path
         d="m 88.347862,1034.6959 c 0.03158,-10e-4 0.05921,0 0.08291,0.018 0.02368,0.013 0.04342,0.038 0.05922,0.077 l 1.073876,2.7004 c 0.02829,0.081 0.02697,0.1484 -0.0039,0.2034 -0.03093,0.055 -0.07173,0.087 -0.12239,0.097 -0.06943,0.01 -0.116146,0.024 -0.140156,0.047 -0.02402,0.024 -0.03521,0.055 -0.03356,0.095 0.0013,0.045 0.03816,0.073 0.110546,0.085 0.07237,0.012 0.172392,0.02 0.300054,0.026 0.591873,0.015 1.121572,0.024 1.589098,0.028 0.467507,0 0.82744,0 1.079797,0 0.252995,9e-4 0.418156,-0.01 0.495483,-0.03 0.0773,-0.021 0.11218,-0.058 0.104624,-0.1125 -1.1e-5,-0.095 -0.06318,-0.1421 -0.189507,-0.1421 -0.07799,0 -0.158921,0 -0.242807,-0.012 -0.08391,-0.01 -0.176686,-0.02 -0.278339,-0.035 -0.126348,0 -0.288219,-0.098 -0.485612,-0.2803 -0.197413,-0.1823 -0.430349,-0.5679 -0.698809,-1.1568 -0.315951,-0.7297 -0.72811,-1.6917 -1.236477,-2.8859 -0.508382,-1.1941 -0.98605,-2.3164 -1.433004,-3.3667 -0.446966,-1.0502 -0.736296,-1.7244 -0.86799,-2.0225 -0.06646,-0.1491 -0.127002,-0.2576 -0.181612,-0.3258 -0.05462,-0.068 -0.130949,-0.1016 -0.228987,-0.1006 -0.06943,0 -0.135885,0.041 -0.199378,0.1263 -0.0635,0.086 -0.13391,0.2224 -0.211222,0.4106 l -3.632225,8.4489 c -0.132919,0.3405 -0.28163,0.6109 -0.446132,0.8113 -0.164503,0.2004 -0.400071,0.3247 -0.706704,0.3731 -0.06449,7e-4 -0.132918,0 -0.2053,0.01 -0.07238,0 -0.140814,0.01 -0.205299,0.01 -0.05494,0 -0.09508,0.015 -0.120417,0.041 -0.02533,0.027 -0.03784,0.06 -0.03751,0.1007 -3.28e-4,0.054 0.02007,0.092 0.06119,0.1125 0.04113,0.021 0.104953,0.031 0.191481,0.03 0.376055,0 0.717563,-0.01 1.024526,-0.024 0.306962,-0.014 0.502392,-0.022 0.58629,-0.024 0.229316,0 0.485283,0.01 0.767901,0.024 0.282615,0.014 0.54253,0.022 0.779747,0.024 0.07139,9e-4 0.126001,-0.01 0.163838,-0.03 0.03783,-0.021 0.05691,-0.058 0.05725,-0.1125 0.0023,-0.04 -0.0102,-0.074 -0.03751,-0.1007 -0.02731,-0.027 -0.08324,-0.04 -0.167793,-0.041 l -0.2053,0 c -0.209579,-10e-4 -0.354999,-0.035 -0.436262,-0.1007 -0.08127,-0.066 -0.120089,-0.1589 -0.116468,-0.2783 -3.3e-4,-0.083 0.01612,-0.1978 0.04935,-0.3455 0.03323,-0.1477 0.08521,-0.3063 0.155949,-0.4757 l 0.742237,-1.8003 c 0.01414,-0.039 0.02928,-0.064 0.0454,-0.077 0.01612,-0.013 0.0431,-0.019 0.08094,-0.018 z m -2.984741,-0.7422 c -0.02468,0 -0.04245,-0.01 -0.0533,-0.024 -0.01086,-0.016 -0.0089,-0.04 0.0059,-0.071 l 1.342344,-3.3953 c 0.0072,-0.026 0.01645,-0.053 0.02765,-0.081 0.01118,-0.028 0.02829,-0.043 0.05133,-0.045 0.01546,0 0.02796,0.018 0.03751,0.045 0.0095,0.028 0.01809,0.055 0.02566,0.081 l 1.310747,3.4111 c 0.01842,0.05 -0.0026,0.076 -0.06317,0.079 z"
         style="fill:#ffffff;stroke:#000000;-inkscape-font-specification:Trajan Pro Bold"
         id="path4547"
         inkscape:connector-curvature="0" />
      <path
         d="m 95.972702,1038.2492 c 0.379998,0.01 0.776779,-0.026 1.190344,-0.099 0.413555,-0.072 0.790595,-0.2238 1.131122,-0.4541 0.500082,-0.3533 0.85804,-0.7363 1.073875,-1.1489 0.215821,-0.4125 0.321102,-0.8665 0.315846,-1.362 0.01447,-0.6044 -0.156614,-1.1723 -0.51325,-1.7036 -0.356649,-0.5314 -0.985707,-1.0479 -1.887177,-1.5496 l -0.568522,-0.3159 c -0.60702,-0.3402 -1.007749,-0.6468 -1.202188,-0.9199 -0.194445,-0.2731 -0.283277,-0.556 -0.266494,-0.8488 0.01678,-0.4606 0.208257,-0.8146 0.574444,-1.0621 0.366179,-0.2474 0.806388,-0.3724 1.320629,-0.375 0.445469,0.011 0.790266,0.084 1.034395,0.2211 0.244116,0.1368 0.415199,0.2737 0.513249,0.4106 0.146401,0.1809 0.244444,0.356 0.294131,0.5251 0.04967,0.1691 0.0727,0.2888 0.06909,0.3592 -6e-6,0.158 0.04737,0.2369 0.142131,0.2369 0.113171,0 0.171076,-0.1421 0.173715,-0.4264 0.002,-0.5191 0.0099,-0.8981 0.02369,-1.137 0.01381,-0.2389 0.02171,-0.3968 0.02369,-0.4738 -7e-6,-0.047 -0.0158,-0.083 -0.04738,-0.1105 -0.03159,-0.027 -0.07897,-0.048 -0.14213,-0.063 -0.184909,-0.051 -0.446797,-0.099 -0.785667,-0.1461 -0.338882,-0.047 -0.735004,-0.072 -1.188369,-0.075 -0.988995,0.01 -1.814141,0.2547 -2.47544,0.7343 -0.661304,0.4797 -1.004786,1.1351 -1.030446,1.9662 -0.01185,0.585 0.146077,1.1206 0.473768,1.6069 0.327688,0.4862 0.896209,0.9666 1.705567,1.441 l 0.805406,0.4738 c 0.596153,0.3602 0.979116,0.6938 1.148889,1.0008 0.169761,0.307 0.244774,0.605 0.22504,0.8942 -0.0053,0.4857 -0.176353,0.8884 -0.51325,1.2082 -0.336907,0.3197 -0.808043,0.4856 -1.413409,0.4974 -0.453374,0.01 -0.892925,-0.09 -1.318656,-0.2902 -0.425735,-0.2003 -0.723156,-0.5458 -0.892263,-1.0363 -0.03981,-0.1218 -0.07074,-0.2455 -0.09278,-0.3712 -0.02204,-0.1256 -0.03323,-0.2336 -0.03356,-0.3237 0.002,-0.051 -0.0059,-0.099 -0.02369,-0.1461 -0.01777,-0.047 -0.05725,-0.072 -0.118442,-0.075 -0.0556,0 -0.09837,0.034 -0.128313,0.097 -0.02994,0.063 -0.04507,0.1464 -0.0454,0.2507 -0.0102,0.1257 -0.02533,0.36 -0.0454,0.7028 -0.02007,0.3428 -0.03126,0.7034 -0.03356,1.0818 -0.0026,0.1444 0.01448,0.2464 0.05133,0.3059 0.03685,0.06 0.109229,0.1103 0.217144,0.152 0.306303,0.132 0.657023,0.2234 1.052161,0.2744 0.395133,0.051 0.797178,0.075 1.206135,0.073 z"
         style="fill:#ffffff;stroke:#000000;-inkscape-font-specification:Trajan Pro Bold"
         id="path4549"
         inkscape:connector-curvature="0" />
      <path
         d="m 102.98557,1034.1748 c 0.001,0.6224 -10e-4,1.1818 -0.008,1.6779 -0.007,0.4961 -0.025,0.8896 -0.0553,1.1805 -0.0201,0.1984 -0.0589,0.3582 -0.11646,0.4797 -0.0576,0.1214 -0.15563,0.1983 -0.29413,0.2309 -0.12371,0.032 -0.2869,0.047 -0.48957,0.047 -0.0852,0 -0.14377,0.018 -0.17568,0.047 -0.0319,0.03 -0.047,0.061 -0.0454,0.095 0.003,0.095 0.0921,0.1422 0.26847,0.1422 0.14377,-4e-4 0.29841,0 0.4639,-0.01 0.16549,-0.01 0.33196,-0.013 0.49943,-0.022 0.16812,-7e-4 0.32144,0 0.45995,-0.01 0.13851,0 0.2484,-0.01 0.32966,-0.01 0.20431,3e-4 0.43922,0 0.70474,0.01 0.2655,0.01 0.56753,0.014 0.90608,0.022 0.33854,0.016 0.71953,0.028 1.14296,0.035 0.42343,0.01 0.89522,0.012 1.41539,0.012 0.25299,0.01 0.43,-0.01 0.53101,-0.043 0.101,-0.036 0.17141,-0.1375 0.21122,-0.304 0.0424,-0.1605 0.0839,-0.404 0.12437,-0.7304 0.0405,-0.3264 0.0622,-0.5777 0.0651,-0.7541 0.002,-0.075 -0.006,-0.1457 -0.0217,-0.2112 -0.0161,-0.066 -0.051,-0.1003 -0.10463,-0.1046 -0.0461,-3e-4 -0.0803,0.016 -0.10265,0.049 -0.0224,0.033 -0.0408,0.085 -0.0553,0.156 -0.0448,0.2734 -0.11319,0.4886 -0.2053,0.6455 -0.0921,0.1569 -0.22373,0.2734 -0.39481,0.3494 -0.19083,0.076 -0.40929,0.125 -0.65538,0.1461 -0.2461,0.021 -0.46456,0.03 -0.65538,0.028 -0.69815,0.01 -1.18508,-0.062 -1.46078,-0.2171 -0.27571,-0.1553 -0.41521,-0.4567 -0.4185,-0.9041 -0.007,-0.227 -0.009,-0.5508 -0.006,-0.9713 0.003,-0.4204 0.005,-0.76 0.006,-1.0186 l 0,-1.0738 c -6.6e-4,-0.041 0.005,-0.074 0.0158,-0.1007 0.0112,-0.027 0.0322,-0.041 0.0632,-0.042 0.1316,2e-4 0.35269,0 0.66328,0.01 0.31058,0.01 0.61589,0.014 0.91595,0.023 0.30005,0.01 0.50009,0.02 0.60011,0.03 0.2553,0.026 0.43954,0.085 0.55273,0.1777 0.11317,0.093 0.18687,0.2072 0.22109,0.3434 0.0148,0.088 0.0247,0.1731 0.0296,0.2567 0.005,0.083 0.0108,0.1612 0.0178,0.2329 -6.7e-4,0.032 0.009,0.059 0.0276,0.079 0.0191,0.02 0.052,0.031 0.0987,0.032 0.0612,-0.01 0.10066,-0.042 0.11844,-0.1086 0.0178,-0.067 0.0256,-0.1306 0.0237,-0.1915 6.5e-4,-0.062 0.007,-0.1905 0.0197,-0.3849 0.0125,-0.1945 0.027,-0.3662 0.0434,-0.5153 0.0391,-0.3329 0.0674,-0.5711 0.0849,-0.7146 0.0174,-0.1434 0.026,-0.2316 0.0257,-0.2645 -6.6e-4,-0.04 -0.0112,-0.074 -0.0316,-0.1007 -0.0204,-0.027 -0.0467,-0.04 -0.079,-0.041 -0.0299,0 -0.0609,0.018 -0.0928,0.051 -0.0319,0.033 -0.0747,0.074 -0.12832,0.1224 -0.0622,0.069 -0.14707,0.1168 -0.25465,0.1441 -0.10759,0.027 -0.2438,0.048 -0.40862,0.061 -0.12362,0.01 -0.35719,0.018 -0.70071,0.022 -0.34354,0 -0.68707,0.01 -1.03059,0.01 -0.34354,0 -0.57711,0 -0.70071,0 -0.0385,-10e-4 -0.0642,-0.015 -0.077,-0.042 -0.0128,-0.027 -0.0188,-0.06 -0.0178,-0.1006 l 0,-3.3164 c 0,-0.082 0.0316,-0.1237 0.0948,-0.1264 0.112,2e-4 0.3249,0 0.63871,0.01 0.31379,0.01 0.62496,0.014 0.9335,0.023 0.30852,0.01 0.5109,0.02 0.60712,0.03 0.33525,0.033 0.56095,0.093 0.6771,0.1796 0.11613,0.087 0.19575,0.1899 0.23885,0.31 0.0385,0.084 0.0641,0.173 0.077,0.2684 0.0128,0.095 0.0187,0.1692 0.0178,0.2211 -0.001,0.056 0.005,0.098 0.0197,0.1283 0.0145,0.03 0.0447,0.045 0.0908,0.045 0.054,-0.01 0.0921,-0.034 0.1145,-0.087 0.0224,-0.053 0.0368,-0.097 0.0434,-0.1342 0.0161,-0.097 0.0312,-0.2465 0.0454,-0.4482 0.0141,-0.2016 0.0253,-0.347 0.0336,-0.4362 0.0184,-0.2997 0.0408,-0.5096 0.0671,-0.6297 0.0263,-0.1201 0.0408,-0.1997 0.0434,-0.2389 9.8e-4,-0.033 -0.005,-0.062 -0.0178,-0.087 -0.0128,-0.025 -0.0385,-0.038 -0.077,-0.039 -0.0319,0 -0.0668,0.01 -0.10462,0.026 -0.0379,0.015 -0.0767,0.028 -0.11647,0.037 -0.0569,0.01 -0.13655,0.022 -0.23886,0.04 -0.10233,0.017 -0.21748,0.03 -0.34546,0.04 -0.12312,0 -0.45769,0.01 -1.00368,0.01 -0.54601,-3e-4 -1.10167,0 -1.66697,0 -0.56531,0 -0.93847,0 -1.11949,0 -0.2109,0 -0.50371,-0.01 -0.87845,-0.016 -0.37474,-0.01 -0.75046,-0.014 -1.12717,-0.016 -0.10298,-6e-4 -0.18129,0.01 -0.23491,0.028 -0.0536,0.019 -0.0806,0.052 -0.0809,0.099 9.9e-4,0.047 0.0227,0.083 0.0651,0.1066 0.0424,0.024 0.0997,0.035 0.17174,0.035 0.10594,0 0.20991,0 0.3119,0.012 0.10199,0.01 0.18227,0.02 0.24083,0.036 0.21649,0.057 0.36783,0.1365 0.45403,0.2388 0.0862,0.1024 0.13489,0.2649 0.14608,0.4876 0.008,0.1777 0.0122,0.4501 0.0138,0.8173 0.002,0.3671 0.002,1.0423 0.002,2.0253 z"
         style="fill:#ffffff;stroke:#000000;-inkscape-font-specification:Trajan Pro Bold"
         id="path4551"
         inkscape:connector-curvature="0" />
      <path
         d="m 112.08476,1034.1748 c 10e-4,0.6224 -0.001,1.1818 -0.008,1.6779 -0.007,0.4961 -0.025,0.8896 -0.0553,1.1805 -0.0201,0.1984 -0.0589,0.3582 -0.11647,0.4797 -0.0576,0.1214 -0.15562,0.1983 -0.29413,0.2309 -0.12371,0.032 -0.2869,0.047 -0.48956,0.047 -0.0852,0 -0.14378,0.018 -0.17569,0.047 -0.0319,0.03 -0.047,0.061 -0.0454,0.095 0.003,0.095 0.0921,0.1422 0.26847,0.1422 0.29611,0 0.6159,-0.01 0.95939,-0.024 0.34348,-0.014 0.59221,-0.022 0.74619,-0.024 0.12962,0 0.4152,0.01 0.85673,0.024 0.44152,0.014 0.87713,0.022 1.30682,0.024 0.0878,0 0.15692,-0.012 0.20726,-0.036 0.0503,-0.024 0.076,-0.059 0.077,-0.1066 -3.3e-4,-0.034 -0.0155,-0.065 -0.0454,-0.095 -0.0299,-0.03 -0.0727,-0.045 -0.12831,-0.047 -0.0915,0 -0.2007,0 -0.32769,-0.012 -0.127,-0.01 -0.24413,-0.02 -0.35138,-0.035 -0.20596,-0.033 -0.34283,-0.1095 -0.4106,-0.2309 -0.0678,-0.1214 -0.10989,-0.2813 -0.12634,-0.4797 -0.0309,-0.2899 -0.052,-0.6814 -0.0632,-1.1746 -0.0112,-0.4932 -0.0165,-1.0544 -0.0158,-1.6838 l 0,-0.1895 c 6.6e-4,-0.039 0.0112,-0.068 0.0316,-0.085 0.0204,-0.017 0.0467,-0.026 0.079,-0.026 l 1.24759,0.032 c 0.047,0 0.0911,0 0.13226,0.018 0.0411,0.013 0.0813,0.039 0.12041,0.077 0.0961,0.1208 0.26715,0.361 0.51325,0.7206 0.24609,0.3596 0.51193,0.73 0.79751,1.1113 0.38,0.5196 0.71756,0.9413 1.01268,1.2654 0.29511,0.3241 0.58924,0.5603 0.8824,0.7087 0.1737,0.094 0.37505,0.1625 0.60405,0.2053 0.22898,0.043 0.53298,0.064 0.91201,0.063 l 1.32655,0 c 0.0872,9e-4 0.15363,-0.01 0.19938,-0.03 0.0457,-0.021 0.0687,-0.058 0.0691,-0.1125 -3.4e-4,-0.034 -0.0155,-0.065 -0.0454,-0.095 -0.0299,-0.03 -0.0727,-0.045 -0.12831,-0.047 -0.0533,7e-4 -0.10463,-7e-4 -0.15397,0 -0.0494,0 -0.10859,-0.013 -0.17767,-0.028 -0.11022,-0.01 -0.28855,-0.066 -0.53496,-0.1698 -0.24644,-0.1039 -0.56294,-0.3421 -0.94951,-0.7146 -0.4162,-0.4201 -0.87484,-0.9301 -1.3759,-1.5298 -0.50109,-0.5998 -1.05842,-1.2795 -1.67201,-2.0392 0.67445,-0.5383 1.16533,-1.0449 1.47263,-1.52 0.30728,-0.4751 0.45862,-0.9581 0.45403,-1.449 -0.0161,-0.454 -0.12997,-0.8409 -0.34151,-1.1607 -0.21156,-0.3198 -0.4241,-0.5488 -0.63761,-0.687 -0.37936,-0.2378 -0.80114,-0.3938 -1.26536,-0.4678 -0.46423,-0.074 -0.92155,-0.1076 -1.37196,-0.1007 -0.24708,0 -0.60174,0.01 -1.06399,0.016 -0.46226,0.01 -0.82877,0.014 -1.09954,0.016 -0.15793,0 -0.4185,-0.01 -0.78172,-0.016 -0.36323,-0.01 -0.73434,-0.014 -1.11336,-0.016 -0.10298,-6e-4 -0.18128,0.01 -0.23491,0.028 -0.0536,0.019 -0.0806,0.052 -0.0809,0.099 9.9e-4,0.047 0.0227,0.083 0.0652,0.1066 0.0424,0.024 0.0997,0.035 0.17174,0.035 0.10594,0 0.2099,0 0.31189,0.012 0.10199,0.01 0.18227,0.02 0.24084,0.036 0.21648,0.057 0.36782,0.1365 0.45402,0.2388 0.0862,0.1024 0.13489,0.2649 0.14608,0.4876 0.008,0.1777 0.0122,0.4501 0.0138,0.8173 0.002,0.3671 0.002,1.0423 0.002,2.0253 z m 1.76873,-5.322 c -6.6e-4,-0.054 0.009,-0.096 0.0276,-0.1244 0.0191,-0.029 0.052,-0.05 0.0987,-0.065 0.0747,-0.016 0.18588,-0.028 0.33361,-0.036 0.14772,-0.01 0.31025,-0.012 0.48759,-0.012 0.44744,-0.019 0.90278,0.1415 1.36603,0.4816 0.46323,0.3402 0.71328,0.9746 0.75013,1.903 -0.0109,0.5478 -0.10759,0.9801 -0.29018,1.297 -0.1826,0.3168 -0.38593,0.5478 -0.60998,0.6928 -0.10989,0.085 -0.2336,0.1438 -0.37112,0.1757 -0.13752,0.032 -0.34019,0.047 -0.608,0.045 -0.17734,7e-4 -0.35961,-0.01 -0.54681,-0.028 -0.1872,-0.019 -0.35763,-0.052 -0.51127,-0.099 -0.0467,-0.022 -0.0796,-0.049 -0.0987,-0.083 -0.0191,-0.034 -0.0283,-0.085 -0.0276,-0.154 z"
         style="fill:#ffffff;stroke:#000000;-inkscape-font-specification:Trajan Pro Bold"
         id="path4553"
         inkscape:connector-curvature="0" />
    </g>
    <g
       style="font-size:3.71871901px;font-style:normal;font-variant:normal;font-weight:normal;font-stretch:normal;line-height:125%;letter-spacing:0px;word-spacing:0px;fill:#ffffff;fill-opacity:1;stroke:#000000;stroke-width:0.09296797;font-family:TacticSansExd-Reg;-inkscape-font-specification:TacticSansExd-Reg"
       id="text3006"
       transform="translate(0,-10)">
      <path
         d="m 9.400324,1048.6881 c 0.4896182,0 0.852808,-0.1151 1.089571,-0.3505 0.236747,-0.2353 0.354505,-0.5995 0.353273,-1.0923 l 0,-0.662 -1.3238465,0 0,0.424 c 0.00294,0.2239 -0.041996,0.3822 -0.134802,0.475 -0.092818,0.093 -0.2511712,0.1378 -0.47506,0.1348 l -3.4955509,0 c -0.2206433,0 -0.3780669,-0.042 -0.4722713,-0.1348 -0.094208,-0.093 -0.1400717,-0.2511 -0.1375908,-0.475 l 0,-1.8445 c -0.00248,-0.2239 0.043383,-0.3822 0.1375908,-0.4751 0.094204,-0.093 0.2516279,-0.1377 0.4722713,-0.1348 l 3.4955509,0 c 0.2238889,0 0.3822422,0.042 0.4750601,0.1348 0.092805,0.093 0.1377393,0.2512 0.1348019,0.4751 l 0,0.3719 1.3238465,0 0,-0.6099 c 0.0012,-0.4929 -0.116526,-0.857 -0.353273,-1.0923 -0.236763,-0.2354 -0.5999528,-0.3522 -1.089571,-0.3505 l -4.521904,0 c -0.4896265,0 -0.8528163,0.1151 -1.0895708,0.3505 -0.2367559,0.2353 -0.3545136,0.5994 -0.3532736,1.0923 l 0,2.3205 c -0.00124,0.4928 0.1165177,0.857 0.3532736,1.0923 0.2367545,0.2354 0.5999443,0.3522 1.0895708,0.3505 z"
         style="font-weight:normal;fill:#ffffff;-inkscape-font-specification:TacticSansExtExd-Bld"
         id="path4556"
         inkscape:connector-curvature="0" />
      <path
         d="m 21.246417,1048.6881 c 0.489618,0 0.852808,-0.1151 1.089571,-0.3505 0.236747,-0.2353 0.354505,-0.5995 0.353274,-1.0923 l 0,-2.3205 c 0.0012,-0.4929 -0.116527,-0.857 -0.353274,-1.0923 -0.236763,-0.2354 -0.599953,-0.3522 -1.089571,-0.3505 l -4.715275,0 c -0.489626,0 -0.852816,0.1151 -1.08957,0.3505 -0.236756,0.2353 -0.354514,0.5994 -0.353274,1.0923 l 0,2.3205 c -0.0012,0.4928 0.116518,0.857 0.353274,1.0923 0.236754,0.2354 0.599944,0.3522 1.08957,0.3505 z m -4.179786,-1.0858 c -0.220643,0 -0.378067,-0.043 -0.472271,-0.1376 -0.09421,-0.094 -0.140072,-0.2517 -0.137591,-0.4723 l 0,-1.8147 c -0.0025,-0.2207 0.04338,-0.3781 0.137591,-0.4723 0.0942,-0.094 0.251628,-0.1401 0.472271,-0.1376 l 3.644298,0 c 0.223888,0 0.382242,0.043 0.47506,0.1376 0.09281,0.094 0.137739,0.2516 0.134802,0.4723 l 0,1.8147 c 0.0029,0.2206 -0.042,0.3781 -0.134802,0.4723 -0.09282,0.094 -0.251172,0.14 -0.47506,0.1376 l -3.644298,0 z"
         style="font-weight:normal;fill:#ffffff;-inkscape-font-specification:TacticSansExtExd-Bld"
         id="path4558"
         inkscape:connector-curvature="0" />
      <path
         d="m 33.214067,1047.1783 -5.027643,-3.6963 -1.1751,0 0,5.2061 1.323847,0 0,-3.7335 5.087142,3.7335 1.115601,0 0,-5.2061 -1.323847,0 z"
         style="font-weight:normal;fill:#ffffff;-inkscape-font-specification:TacticSansExtExd-Bld"
         id="path4560"
         inkscape:connector-curvature="0" />
      <path
         d="m 38.613151,1043.482 0,1.1304 2.915438,0 0,4.0757 1.368471,0 0,-4.0757 2.915439,0 0,-1.1304 z"
         style="font-weight:normal;fill:#ffffff;-inkscape-font-specification:TacticSansExtExd-Bld"
         id="path4562"
         inkscape:connector-curvature="0" />
      <path
         d="m 55.666887,1046.8139 0.163621,-0.03 c 0.454136,0 0.784168,-0.097 0.990097,-0.3013 0.205913,-0.2045 0.307247,-0.5354 0.304001,-0.9928 l 0,-0.714 c 0.0032,-0.4574 -0.09809,-0.7884 -0.304001,-0.9929 -0.205929,-0.2045 -0.535961,-0.3049 -0.990097,-0.3012 l -5.934999,0 0,5.2061 1.368471,0 0,-1.8147 2.796441,0 1.606466,1.8147 1.680839,0 z m -0.423929,-2.3799 c 0.19383,0 0.328632,0.034 0.404406,0.1124 0.07576,0.078 0.112019,0.214 0.108771,0.4082 l 0,0.476 c 0.0032,0.1941 -0.03301,0.3301 -0.108771,0.4081 -0.07577,0.078 -0.210576,0.1154 -0.404406,0.1125 l -3.978978,0 0,-1.5172 z"
         style="font-weight:normal;fill:#ffffff;-inkscape-font-specification:TacticSansExtExd-Bld"
         id="path4564"
         inkscape:connector-curvature="0" />
      <path
         d="m 69.493751,1048.6881 -3.495551,-5.2061 -1.517218,0 -3.495551,5.2061 1.532092,0 0.639612,-1.004 4.097976,0 0.639611,1.004 z m -4.28391,-4.2021 1.375909,2.1568 -2.759254,0 z"
         style="font-weight:normal;fill:#ffffff;-inkscape-font-specification:TacticSansExtExd-Bld"
         id="path4566"
         inkscape:connector-curvature="0" />
      <path
         d="m 79.331186,1048.6881 c 0.489619,0 0.852808,-0.1151 1.089571,-0.3505 0.236748,-0.2353 0.354506,-0.5995 0.353274,-1.0923 l 0,-0.662 -1.323847,0 0,0.424 c 0.0029,0.2239 -0.042,0.3822 -0.134802,0.475 -0.09282,0.093 -0.251171,0.1378 -0.47506,0.1348 l -3.495551,0 c -0.220643,0 -0.378067,-0.042 -0.472271,-0.1348 -0.09421,-0.093 -0.140072,-0.2511 -0.137591,-0.475 l 0,-1.8445 c -0.0025,-0.2239 0.04338,-0.3822 0.137591,-0.4751 0.0942,-0.093 0.251628,-0.1377 0.472271,-0.1348 l 3.495551,0 c 0.223889,0 0.382242,0.042 0.47506,0.1348 0.0928,0.093 0.137739,0.2512 0.134802,0.4751 l 0,0.3719 1.323847,0 0,-0.6099 c 0.0012,-0.4929 -0.116526,-0.857 -0.353274,-1.0923 -0.236763,-0.2354 -0.599952,-0.3522 -1.089571,-0.3505 l -4.521904,0 c -0.489626,0 -0.852816,0.1151 -1.08957,0.3505 -0.236756,0.2353 -0.354514,0.5994 -0.353274,1.0923 l 0,2.3205 c -0.0012,0.4928 0.116518,0.857 0.353274,1.0923 0.236754,0.2354 0.599944,0.3522 1.08957,0.3505 z"
         style="font-weight:normal;fill:#ffffff;-inkscape-font-specification:TacticSansExtExd-Bld"
         id="path4568"
         inkscape:connector-curvature="0" />
      <path
         d="m 84.773723,1043.482 0,1.1304 2.915438,0 0,4.0757 1.368471,0 0,-4.0757 2.915439,0 0,-1.1304 z"
         style="font-weight:normal;fill:#ffffff;-inkscape-font-specification:TacticSansExtExd-Bld"
         id="path4570"
         inkscape:connector-curvature="0" />
      <path
         d="m 96.093272,1048.6881 1.383346,0 0,-5.2061 -1.383346,0 z"
         style="font-weight:normal;fill:#ffffff;-inkscape-font-specification:TacticSansExtExd-Bld"
         id="path4572"
         inkscape:connector-curvature="0" />
      <path
         d="m 108.11558,1047.1783 -5.02764,-3.6963 -1.1751,0 0,5.2061 1.32384,0 0,-3.7335 5.08714,3.7335 1.11561,0 0,-5.2061 -1.32385,0 z"
         style="font-size:7.43743801px;font-weight:bold;letter-spacing:3.56160331px;fill:#ffffff;stroke:#000000;font-family:TacticSansExtExd-Bld;-inkscape-font-specification:TacticSansExtExd-Bld Bold"
         id="path4574"
         inkscape:connector-curvature="0" />
      <path
         d="m 113.96346,1047.2453 c -0.001,0.4928 0.11652,0.857 0.35327,1.0923 0.23676,0.2354 0.59995,0.3522 1.08958,0.3505 l 4.71527,0 c 0.48962,0 0.85281,-0.1151 1.08957,-0.3505 0.23675,-0.2353 0.35451,-0.5995 0.35327,-1.0923 l 0,-1.4578 -3.73354,0 0,0.9669 2.4097,0 0,0.2975 c 0.003,0.2239 -0.042,0.3822 -0.1348,0.4751 -0.0928,0.093 -0.25118,0.1377 -0.47506,0.1348 l -3.68893,0 c -0.22389,0 -0.38225,-0.042 -0.47506,-0.1348 -0.0928,-0.093 -0.13774,-0.2512 -0.1348,-0.4751 l 0,-1.904 c -0.003,-0.2239 0.042,-0.3822 0.1348,-0.475 0.0928,-0.093 0.25117,-0.1378 0.47506,-0.1348 l 3.6443,0 c 0.22389,0 0.38224,0.042 0.47506,0.1348 0.0928,0.093 0.13774,0.2511 0.1348,0.475 l 0,0.1265 1.36847,0 0,-0.3496 c 0.001,-0.4929 -0.11652,-0.857 -0.35327,-1.0923 -0.23676,-0.2354 -0.59995,-0.3522 -1.08957,-0.3505 l -4.71527,0 c -0.48963,0 -0.85282,0.1151 -1.08958,0.3505 -0.23675,0.2353 -0.35451,0.5994 -0.35327,1.0923 l 0,2.3205 z"
         style="font-size:7.43743801px;font-weight:bold;letter-spacing:3.56160331px;fill:#ffffff;stroke:#000000;font-family:TacticSansExtExd-Bld;-inkscape-font-specification:TacticSansExtExd-Bld Bold"
         id="path4576"
         inkscape:connector-curvature="0" />
    </g>
  </g>
</svg>
